<svg width="25" height="24" viewBox="0 0 25 24" fill="none" xmlns="http://www.w3.org/2000/svg">
<path d="M12.3333 2.25C10.4049 2.25 8.51983 2.82183 6.91645 3.89317C5.31307 4.96452 4.06339 6.48726 3.32543 8.26884C2.58748 10.0504 2.39439 12.0108 2.7706 13.9021C3.14681 15.7934 4.0754 17.5307 5.43897 18.8943C6.80253 20.2579 8.53981 21.1865 10.4311 21.5627C12.3224 21.9389 14.2828 21.7458 16.0644 21.0078C17.846 20.2699 19.3687 19.0202 20.4401 17.4168C21.5114 15.8134 22.0833 13.9284 22.0833 12C22.0803 9.41506 21.0521 6.93684 19.2242 5.10901C17.3964 3.28118 14.9182 2.25299 12.3333 2.25ZM16.9768 10.2927L11.4763 15.5427C11.3365 15.6758 11.1508 15.75 10.9578 15.75C10.7647 15.75 10.5791 15.6758 10.4392 15.5427L7.6897 12.9177C7.54606 12.7801 7.4629 12.5911 7.4585 12.3923C7.45409 12.1934 7.52881 12.0009 7.66622 11.8571C7.80364 11.7133 7.99252 11.6299 8.19138 11.6252C8.39024 11.6206 8.58282 11.695 8.72681 11.8323L10.9578 13.9629L15.9397 9.20728C16.0837 9.07004 16.2763 8.99558 16.4751 9.00023C16.674 9.00489 16.8629 9.08828 17.0003 9.2321C17.1377 9.37592 17.2124 9.56841 17.208 9.76727C17.2036 9.96614 17.1205 10.1551 16.9768 10.2927Z" fill="#B6B6B6"/>
</svg>
