<svg width="220" height="98" viewBox="0 0 220 98" fill="none" xmlns="http://www.w3.org/2000/svg">
<g clip-path="url(#clip0_782_9)">
<path fill-rule="evenodd" clip-rule="evenodd" d="M32.7191 67.3023C32.612 66.6501 32.5164 66.0888 32.4644 65.7924C32.1433 63.9897 31.8892 59.4155 30.6306 56.2989C29.6712 53.9208 28.126 52.3816 25.7608 52.9206C23.6111 53.4105 22.2634 55.544 21.6046 58.4999C20.1868 64.8617 21.8026 75.0452 23.0853 77.9956C23.2255 78.3176 23.5988 78.4652 23.9208 78.325C24.2414 78.1856 24.389 77.8122 24.2488 77.4902C23.0187 74.6585 21.4823 64.8831 22.8433 58.7757C23.3756 56.3886 24.307 54.5537 26.0437 54.1583C27.7574 53.7672 28.7579 55.0495 29.4534 56.7735C30.6788 59.8064 30.9027 64.2597 31.2144 66.0151C31.4103 67.1154 32.0392 71.3331 32.1801 71.6817C32.3563 72.1182 32.7258 72.1082 32.8468 72.0959C32.9406 72.0864 33.4053 72.009 33.4293 71.4324C33.7776 63.212 40.0019 50.8388 49.1049 42.5819C58.1278 34.3975 70.0222 30.2616 81.8733 38.4897C82.1615 38.689 82.5574 38.6175 82.7574 38.3307C82.9567 38.0424 82.8852 37.6465 82.5969 37.4472C70.1794 28.8262 57.7051 33.067 48.2525 41.6409C40.2857 48.8668 34.4969 59.174 32.7191 67.3023Z" fill="#FFD978"/>
<path fill-rule="evenodd" clip-rule="evenodd" d="M81.5617 37.6246C80.0695 37.7396 78.58 37.8066 77.0959 38.0376C73.1417 38.6524 69.1632 40.1287 65.9462 42.5325C65.6651 42.7435 65.6085 43.1411 65.8173 43.4215C66.0284 43.7026 66.4259 43.7592 66.7063 43.5503C69.7581 41.267 73.5391 39.8756 77.2906 39.2927C78.9895 39.0291 80.6975 38.9832 82.4066 38.8292C82.4918 38.8204 83.2365 38.7762 83.3911 38.7237C83.7519 38.6035 83.8245 38.3233 83.8414 38.1894C83.857 38.0776 83.8489 37.9401 83.777 37.7863C83.7173 37.6603 83.548 37.4479 83.2611 37.2121C82.3446 36.4538 79.9531 34.992 79.5859 34.7105C75.3767 31.4843 72.0023 27.7762 68.3521 23.9612C68.1089 23.7088 67.7064 23.6995 67.4533 23.9412C67.2002 24.183 67.1923 24.5848 67.4341 24.8379C71.1302 28.7016 74.5526 32.4518 78.8135 35.7166C79.0651 35.9109 80.5185 36.9103 81.5617 37.6246Z" fill="#FFD978"/>
</g>
<path d="M102.466 41.9135C101.645 41.9135 100.882 41.7668 100.178 41.4735C99.474 41.1802 98.9093 40.7328 98.484 40.1315C98.0733 39.5448 97.868 38.8262 97.868 37.9755C97.868 36.9342 98.154 36.1862 98.726 35.7315C99.298 35.2622 99.9507 35.0275 100.684 35.0275C100.288 35.4528 99.9873 35.9222 99.782 36.4355C99.5767 36.9488 99.474 37.4622 99.474 37.9755C99.474 38.8555 99.76 39.5888 100.332 40.1755C100.919 40.7622 101.755 41.0555 102.84 41.0555C103.529 41.0555 104.182 40.9308 104.798 40.6815C105.429 40.4322 105.942 40.0655 106.338 39.5815C106.734 39.0975 106.932 38.5182 106.932 37.8435C106.932 37.2568 106.785 36.7435 106.492 36.3035C106.199 35.8488 105.832 35.4675 105.392 35.1595C104.952 34.8368 104.365 34.4555 103.632 34.0155C102.884 33.5755 102.283 33.1942 101.828 32.8715C101.388 32.5342 101.014 32.1308 100.706 31.6615C100.398 31.1922 100.244 30.6495 100.244 30.0335C100.244 29.1828 100.508 28.3028 101.036 27.3935C101.564 26.4695 102.305 25.6995 103.258 25.0835C104.226 24.4675 105.311 24.1595 106.514 24.1595C107.321 24.1595 107.907 24.3575 108.274 24.7535C108.641 25.1495 108.824 25.6848 108.824 26.3595C108.824 27.0928 108.648 27.9142 108.296 28.8235C107.944 29.7328 107.555 30.5248 107.13 31.1995C106.646 31.0968 106.404 30.7815 106.404 30.2535C106.404 29.9748 106.455 29.6595 106.558 29.3075C106.675 28.9555 106.837 28.5155 107.042 27.9875C107.262 27.4155 107.423 26.9535 107.526 26.6015C107.643 26.2348 107.702 25.9122 107.702 25.6335C107.702 25.3255 107.607 25.0908 107.416 24.9295C107.24 24.7682 106.925 24.6875 106.47 24.6875C105.605 24.6875 104.798 24.9588 104.05 25.5015C103.317 26.0295 102.73 26.6748 102.29 27.4375C101.85 28.2002 101.63 28.8968 101.63 29.5275C101.63 29.9968 101.755 30.4148 102.004 30.7815C102.268 31.1482 102.591 31.4708 102.972 31.7495C103.353 32.0135 103.874 32.3288 104.534 32.6955C105.326 33.1502 105.964 33.5608 106.448 33.9275C106.932 34.2795 107.343 34.7342 107.68 35.2915C108.032 35.8342 108.208 36.4795 108.208 37.2275C108.208 38.1955 107.922 39.0315 107.35 39.7355C106.793 40.4395 106.074 40.9748 105.194 41.3415C104.314 41.7228 103.405 41.9135 102.466 41.9135ZM110.851 41.0335C110.367 41.0335 109.978 40.8722 109.685 40.5495C109.377 40.2415 109.223 39.7942 109.223 39.2075C109.223 38.3422 109.531 37.3742 110.147 36.3035C110.778 35.2328 111.57 34.3235 112.523 33.5755C113.476 32.8275 114.408 32.4535 115.317 32.4535C115.889 32.4535 116.366 32.6075 116.747 32.9155C117.128 33.2235 117.319 33.6195 117.319 34.1035C117.319 34.4408 117.224 34.6828 117.033 34.8295C116.842 34.9762 116.578 35.0495 116.241 35.0495C116.314 34.7855 116.351 34.5288 116.351 34.2795C116.351 33.9128 116.263 33.6195 116.087 33.3995C115.911 33.1648 115.64 33.0475 115.273 33.0475C114.628 33.0475 113.946 33.4068 113.227 34.1255C112.523 34.8442 111.929 35.7022 111.445 36.6995C110.976 37.6968 110.741 38.5548 110.741 39.2735C110.741 39.8455 110.939 40.1315 111.335 40.1315C111.922 40.1315 112.611 39.6695 113.403 38.7455C114.195 37.8068 115.046 36.6702 115.955 35.3355C116.146 35.3648 116.336 35.4308 116.527 35.5335C116.732 35.6215 116.835 35.7388 116.835 35.8855C116.835 36.0028 116.762 36.1935 116.615 36.4575C116.483 36.7068 116.402 36.8535 116.373 36.8975C116.124 37.3228 115.926 37.7042 115.779 38.0415C115.632 38.3642 115.559 38.6648 115.559 38.9435C115.559 39.1928 115.618 39.4202 115.735 39.6255C115.867 39.8162 116.058 39.9115 116.307 39.9115C116.732 39.9115 117.268 39.6108 117.913 39.0095C118.558 38.3935 119.196 37.5355 119.827 36.4355L120.047 36.6555C119.739 37.4328 119.343 38.1295 118.859 38.7455C118.375 39.3468 117.854 39.8162 117.297 40.1535C116.74 40.4908 116.204 40.6595 115.691 40.6595C115.178 40.6595 114.782 40.5055 114.503 40.1975C114.239 39.9042 114.107 39.5448 114.107 39.1195C114.107 38.9288 114.129 38.7162 114.173 38.4815C113.513 39.3615 112.919 40.0068 112.391 40.4175C111.878 40.8282 111.364 41.0335 110.851 41.0335ZM120.807 40.8575C120.367 40.8575 120.052 40.6448 119.861 40.2195C119.685 39.8088 119.597 39.2148 119.597 38.4375C119.597 38.1588 119.641 37.1982 119.729 35.5555C119.758 35.1155 119.81 34.8368 119.883 34.7195C119.956 34.5875 120.14 34.5215 120.433 34.5215C120.682 34.5215 120.836 34.5728 120.895 34.6755C120.968 34.7635 121.005 34.9468 121.005 35.2255C121.005 35.5188 120.976 36.0615 120.917 36.8535C120.844 37.5575 120.807 38.1955 120.807 38.7675C120.807 39.2075 120.844 39.5228 120.917 39.7135C120.99 39.9042 121.122 39.9995 121.313 39.9995C121.797 39.9995 122.384 39.5082 123.073 38.5255C123.762 37.5282 124.386 36.4135 124.943 35.1815C124.972 34.2575 125.068 33.6122 125.229 33.2455C125.405 32.8788 125.647 32.6955 125.955 32.6955C126.204 32.6955 126.395 32.7908 126.527 32.9815C126.674 33.1575 126.747 33.3408 126.747 33.5315C126.747 33.6782 126.674 33.8835 126.527 34.1475C126.351 34.4848 126.212 34.8222 126.109 35.1595C126.021 35.4822 125.977 35.9222 125.977 36.4795C125.977 36.9635 126.043 37.3668 126.175 37.6895C126.322 37.9975 126.6 38.1515 127.011 38.1515C127.334 38.1515 127.634 38.0268 127.913 37.7775C128.192 37.5282 128.47 37.1102 128.749 36.5235L129.035 36.7435C128.507 37.9755 127.781 38.5915 126.857 38.5915C126.358 38.5915 125.948 38.4155 125.625 38.0635C125.317 37.6968 125.112 37.1615 125.009 36.4575C124.408 37.6602 123.718 38.6942 122.941 39.5595C122.178 40.4248 121.467 40.8575 120.807 40.8575ZM130.712 40.9675C129.847 40.9675 129.179 40.7255 128.71 40.2415C128.255 39.7722 128.028 39.1635 128.028 38.4155C128.028 37.5502 128.314 36.6188 128.886 35.6215C129.458 34.6242 130.177 33.7882 131.042 33.1135C131.922 32.4242 132.78 32.0795 133.616 32.0795C134.525 32.0795 134.98 32.5268 134.98 33.4215C134.98 34.1402 134.709 34.8148 134.166 35.4455C133.623 36.0615 132.927 36.5675 132.076 36.9635C131.225 37.3595 130.375 37.6015 129.524 37.6895C129.465 37.9388 129.436 38.2028 129.436 38.4815C129.436 39.0095 129.568 39.4495 129.832 39.8015C130.096 40.1535 130.543 40.3295 131.174 40.3295C132.069 40.3295 132.971 39.9555 133.88 39.2075C134.789 38.4595 135.53 37.5355 136.102 36.4355L136.366 36.6335C135.779 37.9388 134.965 38.9875 133.924 39.7795C132.883 40.5715 131.812 40.9675 130.712 40.9675ZM129.634 37.2715C130.25 37.0515 130.895 36.7435 131.57 36.3475C132.245 35.9515 132.817 35.4895 133.286 34.9615C133.77 34.4188 134.012 33.8542 134.012 33.2675C134.012 33.0915 133.975 32.9668 133.902 32.8935C133.843 32.8055 133.726 32.7615 133.55 32.7615C133.095 32.7615 132.597 32.9888 132.054 33.4435C131.526 33.8982 131.035 34.4775 130.58 35.1815C130.14 35.8855 129.825 36.5822 129.634 37.2715ZM143.027 40.6595C142.543 40.6595 142.147 40.4395 141.839 39.9995C141.531 39.5742 141.377 39.0535 141.377 38.4375C141.377 37.8948 141.487 37.2275 141.707 36.4355C141.942 35.6288 142.213 34.9322 142.521 34.3455C142.844 33.7442 143.108 33.4435 143.313 33.4435C143.401 33.4435 143.526 33.4875 143.687 33.5755C143.863 33.6635 144.01 33.7662 144.127 33.8835C143.819 34.3675 143.496 35.0642 143.159 35.9735C142.822 36.8682 142.653 37.6455 142.653 38.3055C142.653 38.6428 142.704 38.9728 142.807 39.2955C142.924 39.6182 143.137 39.7795 143.445 39.7795C143.958 39.7795 144.516 39.3102 145.117 38.3715C145.733 37.4182 146.393 36.2155 147.097 34.7635L147.449 34.0375C148.153 34.1695 148.505 34.3602 148.505 34.6095C148.505 34.6388 148.468 34.7415 148.395 34.9175C148.336 35.0788 148.278 35.2255 148.219 35.3575C147.882 36.1055 147.596 36.8095 147.361 37.4695C147.141 38.1148 147.031 38.6648 147.031 39.1195C147.031 39.7062 147.273 39.9995 147.757 39.9995C148.08 39.9995 148.461 39.8602 148.901 39.5815C149.341 39.2882 149.788 38.8702 150.243 38.3275C150.698 37.7848 151.094 37.1542 151.431 36.4355L151.717 36.6335C151.409 37.4108 151.006 38.1075 150.507 38.7235C150.023 39.3248 149.495 39.7942 148.923 40.1315C148.351 40.4835 147.808 40.6595 147.295 40.6595C146.268 40.6595 145.755 40.1168 145.755 39.0315C145.755 38.7382 145.806 38.3715 145.909 37.9315C145.44 38.7675 144.97 39.4348 144.501 39.9335C144.032 40.4175 143.54 40.6595 143.027 40.6595ZM149.637 46.1595C149.52 46.1595 149.41 46.1008 149.307 45.9835C149.205 45.8662 149.117 45.7342 149.043 45.5875C148.97 45.4408 148.941 45.3528 148.955 45.3235C149.161 44.6195 149.41 43.8422 149.703 42.9915C150.026 42.0528 150.297 41.1948 150.517 40.4175C150.737 39.6402 150.965 38.5915 151.199 37.2715C151.449 35.9368 151.698 34.2355 151.947 32.1675C151.962 32.0208 151.991 31.9255 152.035 31.8815C152.094 31.8228 152.204 31.7935 152.365 31.7935C152.717 31.7935 152.981 31.8962 153.157 32.1015C153.333 32.2922 153.421 32.5268 153.421 32.8055C153.421 33.2162 153.253 34.2062 152.915 35.7755C153.37 34.8955 153.92 34.1402 154.565 33.5095C155.225 32.8642 155.944 32.5415 156.721 32.5415C157.367 32.5415 157.895 32.7762 158.305 33.2455C158.731 33.7002 158.943 34.3015 158.943 35.0495C158.943 35.8268 158.716 36.6555 158.261 37.5355C157.807 38.4008 157.176 39.1268 156.369 39.7135C155.577 40.2855 154.705 40.5715 153.751 40.5715C153.385 40.5715 153.077 40.5275 152.827 40.4395C152.593 40.3662 152.475 40.2782 152.475 40.1755C152.475 40.1315 152.527 40.1022 152.629 40.0875C152.747 40.0728 152.879 40.0655 153.025 40.0655C153.788 40.0655 154.514 39.8235 155.203 39.3395C155.893 38.8555 156.45 38.2395 156.875 37.4915C157.301 36.7435 157.513 35.9955 157.513 35.2475C157.513 34.7488 157.403 34.3455 157.183 34.0375C156.978 33.7148 156.67 33.5535 156.259 33.5535C155.79 33.5535 155.306 33.7515 154.807 34.1475C154.323 34.5288 153.883 34.9982 153.487 35.5555C153.106 36.0982 152.813 36.6115 152.607 37.0955C152.065 39.4128 151.537 41.4222 151.023 43.1235C150.525 44.8395 150.151 45.8148 149.901 46.0495C149.828 46.1228 149.74 46.1595 149.637 46.1595ZM161.487 41.0115C160.182 41.0115 159.529 40.2855 159.529 38.8335C159.529 38.2028 159.639 37.4255 159.859 36.5015C160.094 35.5628 160.409 34.5728 160.805 33.5315C160.453 33.4728 160.189 33.4142 160.013 33.3555V32.9595C160.541 33.0182 160.864 33.0475 160.981 33.0475C161.627 31.3755 162.316 29.9308 163.049 28.7135C163.797 27.4815 164.384 26.8655 164.809 26.8655C164.927 26.8655 165.029 26.9095 165.117 26.9975C165.22 27.0855 165.271 27.2028 165.271 27.3495C165.271 27.5402 165.176 27.8188 164.985 28.1855C164.809 28.5522 164.501 29.1168 164.061 29.8795C163.988 30.0262 163.761 30.4368 163.379 31.1115C162.998 31.7715 162.653 32.4388 162.345 33.1135H163.159C164.377 33.1135 165.425 33.0695 166.305 32.9815V33.3775C164.707 33.5535 163.416 33.6415 162.433 33.6415H162.103C161.297 35.4895 160.893 37.0882 160.893 38.4375C160.893 39.0682 160.989 39.5228 161.179 39.8015C161.37 40.0655 161.685 40.1975 162.125 40.1975C162.873 40.1975 163.614 39.8675 164.347 39.2075C165.081 38.5328 165.733 37.6088 166.305 36.4355L166.591 36.6555C166.049 37.9315 165.315 38.9802 164.391 39.8015C163.467 40.6082 162.499 41.0115 161.487 41.0115ZM167.409 40.7035C166.807 40.7035 166.367 40.5202 166.089 40.1535C165.81 39.7868 165.671 39.3028 165.671 38.7015C165.671 38.1002 165.795 37.4695 166.045 36.8095C166.294 36.1495 166.617 35.5995 167.013 35.1595C167.409 34.7195 167.805 34.4995 168.201 34.4995C168.333 34.4995 168.487 34.5362 168.663 34.6095C168.487 34.7562 168.274 35.0788 168.025 35.5775C167.775 36.0762 167.555 36.6115 167.365 37.1835C167.189 37.7408 167.101 38.1955 167.101 38.5475C167.101 39.3835 167.365 39.8015 167.893 39.8015C168.201 39.8015 168.567 39.6402 168.993 39.3175C169.418 38.9948 169.836 38.5695 170.247 38.0415C169.836 37.7042 169.513 37.2642 169.279 36.7215C169.059 36.1788 168.949 35.6142 168.949 35.0275C168.949 34.2648 169.139 33.6122 169.521 33.0695C169.917 32.5268 170.445 32.2555 171.105 32.2555C171.662 32.2555 172.051 32.4095 172.271 32.7175C172.505 33.0108 172.623 33.4215 172.623 33.9495C172.623 34.5068 172.483 35.1375 172.205 35.8415C171.941 36.5308 171.589 37.2055 171.149 37.8655C171.413 38.0122 171.691 38.0855 171.985 38.0855C172.41 38.0855 172.85 37.9608 173.305 37.7115C173.759 37.4475 174.104 37.0442 174.339 36.5015L174.603 36.7215C174.324 37.3668 173.928 37.8435 173.415 38.1515C172.901 38.4595 172.373 38.6135 171.831 38.6135C171.435 38.6135 171.083 38.5402 170.775 38.3935C170.247 39.0828 169.682 39.6402 169.081 40.0655C168.494 40.4908 167.937 40.7035 167.409 40.7035ZM170.643 37.4695C171.024 36.8975 171.332 36.3182 171.567 35.7315C171.801 35.1302 171.919 34.5802 171.919 34.0815C171.919 33.6708 171.853 33.3628 171.721 33.1575C171.603 32.9522 171.449 32.8495 171.259 32.8495C171.053 32.8495 170.841 32.9522 170.621 33.1575C170.415 33.3482 170.239 33.6195 170.093 33.9715C169.961 34.3088 169.895 34.6828 169.895 35.0935C169.895 35.5482 169.953 35.9882 170.071 36.4135C170.203 36.8242 170.393 37.1762 170.643 37.4695ZM186.175 41.9135C185.045 41.8108 184.481 41.4662 184.481 40.8795C184.495 40.7622 184.547 40.4175 184.635 39.8455C184.723 39.2588 184.877 38.3568 185.097 37.1395C185.111 37.0222 185.273 36.2448 185.581 34.8075L183.755 34.7855C182.024 34.7855 180.594 34.9028 179.465 35.1375C179.465 34.7415 179.597 34.4335 179.861 34.2135C180.491 33.4802 181.591 32.3728 183.161 30.8915C184.701 29.4395 185.94 28.2075 186.879 27.1955C187.817 26.1835 188.573 25.1715 189.145 24.1595C189.203 24.1888 189.255 24.2548 189.299 24.3575C189.357 24.4455 189.387 24.5702 189.387 24.7315C189.387 25.0688 189.247 25.4722 188.969 25.9415C188.558 27.6722 188.03 30.2462 187.385 33.6635H188.309C188.866 33.6635 189.306 33.6195 189.629 33.5315C189.365 33.9128 189.035 34.2282 188.639 34.4775C188.257 34.7122 187.927 34.8295 187.649 34.8295H187.165C187.047 35.4162 186.967 35.8562 186.923 36.1495C186.776 36.9268 186.615 37.9828 186.439 39.3175C186.263 40.6375 186.175 41.5028 186.175 41.9135ZM181.401 33.6635C181.929 33.5902 182.669 33.5535 183.623 33.5535C184.224 33.5535 184.965 33.5682 185.845 33.5975C186.431 31.0015 186.893 29.1388 187.231 28.0095C186.864 28.3762 186.057 29.1388 184.811 30.2975C183.461 31.5588 182.523 32.4682 181.995 33.0255C181.877 33.1575 181.767 33.2748 181.665 33.3775C181.577 33.4802 181.489 33.5755 181.401 33.6635ZM195.514 41.9135C194.136 41.9135 193.087 41.3635 192.368 40.2635C191.664 39.1782 191.312 37.8142 191.312 36.1715C191.312 34.4555 191.657 32.6588 192.346 30.7815C193.05 28.8895 194.011 27.3128 195.228 26.0515C196.446 24.7902 197.795 24.1595 199.276 24.1595C200.156 24.1595 200.919 24.3868 201.564 24.8415C202.224 25.2815 202.73 25.9122 203.082 26.7335C203.449 27.5402 203.632 28.4862 203.632 29.5715C203.632 31.5662 203.273 33.5242 202.554 35.4455C201.836 37.3522 200.853 38.9068 199.606 40.1095C198.36 41.3122 196.996 41.9135 195.514 41.9135ZM195.822 41.1655C196.878 41.1655 197.876 40.5202 198.814 39.2295C199.768 37.9242 200.53 36.3255 201.102 34.4335C201.674 32.5268 201.96 30.7522 201.96 29.1095C201.96 27.7748 201.748 26.7188 201.322 25.9415C200.897 25.1495 200.222 24.7535 199.298 24.7535C198.066 24.7535 196.981 25.4282 196.042 26.7775C195.118 28.1122 194.407 29.7255 193.908 31.6175C193.41 33.4948 193.16 35.1668 193.16 36.6335C193.16 38.0122 193.395 39.1122 193.864 39.9335C194.348 40.7548 195.001 41.1655 195.822 41.1655ZM205.72 41.9135C206.365 41.2682 207.341 39.8675 208.646 37.7115C209.951 35.5555 211.235 33.2602 212.496 30.8255C213.772 28.3762 214.667 26.4842 215.18 25.1495C215.253 24.9295 215.495 24.7095 215.906 24.4895C216.317 24.2695 216.691 24.1595 217.028 24.1595C216.749 24.8635 215.693 26.9755 213.86 30.4955C212.027 34.0008 210.67 36.4575 209.79 37.8655C208.954 39.2002 208.213 40.2048 207.568 40.8795C206.923 41.5688 206.307 41.9135 205.72 41.9135ZM207.964 32.3655C207.377 32.3655 206.93 32.1382 206.622 31.6835C206.314 31.2288 206.16 30.6642 206.16 29.9895C206.16 29.3148 206.299 28.6108 206.578 27.8775C206.857 27.1442 207.238 26.5282 207.722 26.0295C208.206 25.5308 208.749 25.2815 209.35 25.2815C209.907 25.2815 210.355 25.4942 210.692 25.9195C211.029 26.3302 211.198 26.8802 211.198 27.5695C211.198 28.2148 211.051 28.9188 210.758 29.6815C210.479 30.4295 210.091 31.0675 209.592 31.5955C209.093 32.1088 208.551 32.3655 207.964 32.3655ZM208.096 31.5295C208.433 31.5295 208.749 31.3095 209.042 30.8695C209.35 30.4148 209.592 29.8648 209.768 29.2195C209.959 28.5742 210.054 27.9655 210.054 27.3935C210.054 26.5135 209.819 26.0735 209.35 26.0735C208.954 26.0735 208.602 26.3082 208.294 26.7775C208.001 27.2322 207.773 27.7822 207.612 28.4275C207.451 29.0728 207.37 29.6522 207.37 30.1655C207.37 30.5762 207.429 30.9062 207.546 31.1555C207.678 31.4048 207.861 31.5295 208.096 31.5295ZM215.07 39.9995C214.483 39.9995 214.036 39.7722 213.728 39.3175C213.42 38.8628 213.266 38.2982 213.266 37.6235C213.266 36.9488 213.405 36.2448 213.684 35.5115C213.963 34.7782 214.344 34.1622 214.828 33.6635C215.312 33.1648 215.855 32.9155 216.456 32.9155C217.013 32.9155 217.461 33.1282 217.798 33.5535C218.135 33.9642 218.304 34.5142 218.304 35.2035C218.304 35.8488 218.157 36.5528 217.864 37.3155C217.585 38.0635 217.197 38.7015 216.698 39.2295C216.199 39.7428 215.657 39.9995 215.07 39.9995ZM215.202 39.1635C215.539 39.1635 215.855 38.9435 216.148 38.5035C216.456 38.0488 216.698 37.4988 216.874 36.8535C217.065 36.2082 217.16 35.5995 217.16 35.0275C217.16 34.1475 216.925 33.7075 216.456 33.7075C216.06 33.7075 215.708 33.9422 215.4 34.4115C215.107 34.8662 214.879 35.4162 214.718 36.0615C214.557 36.7068 214.476 37.2788 214.476 37.7775C214.476 38.2028 214.535 38.5402 214.652 38.7895C214.784 39.0388 214.967 39.1635 215.202 39.1635Z" fill="#FFD978"/>
<defs>
<clipPath id="clip0_782_9">
<rect width="72.3457" height="72.3457" fill="white" transform="translate(0.645508 33.3101) rotate(-26.663)"/>
</clipPath>
</defs>
</svg>
