<svg width="90" height="89" viewBox="0 0 90 89" fill="none" xmlns="http://www.w3.org/2000/svg">
<g clip-path="url(#clip0_702_2813)">
<path fill-rule="evenodd" clip-rule="evenodd" d="M30.8037 24.5396C31.4641 24.5665 32.0331 24.5864 32.3339 24.5953C34.1642 24.6453 38.6954 25.3212 42.0021 24.7186C44.525 24.2598 46.3448 23.0577 46.2951 20.6323C46.2498 18.428 44.4328 16.6768 41.6711 15.434C35.7274 12.7594 25.4275 12.2833 22.2787 12.943C21.9349 13.0152 21.7149 13.351 21.7871 13.6947C21.8589 14.0369 22.1947 14.2569 22.5384 14.1847C25.5603 13.5523 35.4445 14.0239 41.1507 16.5914C43.3809 17.5953 44.9896 18.8784 45.0257 20.6591C45.0623 22.4165 43.6042 23.1372 41.7753 23.4697C38.5573 24.0568 34.1507 23.3758 32.3685 23.3262C31.2512 23.2956 26.9935 23.0588 26.6237 23.1264C26.1605 23.2107 26.0956 23.5746 26.0832 23.6957C26.0736 23.7894 26.0555 24.2601 26.6152 24.4002C34.5955 26.4031 45.455 35.0002 51.7012 45.5845C57.8925 56.0756 59.5386 68.5605 49.0845 78.5035C48.8311 78.7455 48.8212 79.1477 49.0616 79.4016C49.3036 79.655 49.7058 79.665 49.9592 79.423C60.9126 69.0047 59.2811 55.9306 52.795 44.9399C47.3289 35.6768 38.4048 27.9239 30.8037 24.5396Z" fill="#0B0B0B"/>
<path fill-rule="evenodd" clip-rule="evenodd" d="M49.9946 78.3732C50.1837 76.8886 50.4191 75.4163 50.4929 73.9161C50.6902 69.9193 50.0487 65.7246 48.3448 62.088C48.195 61.77 47.8171 61.6342 47.5003 61.7821C47.1823 61.9319 47.0465 62.3098 47.1944 62.6266C48.8136 66.0771 49.412 70.0612 49.2245 73.8531C49.1391 75.5703 48.8388 77.2522 48.6442 78.9572C48.6355 79.0424 48.5283 79.7807 48.5485 79.9427C48.5933 80.3203 48.8529 80.4481 48.9807 80.4917C49.087 80.5296 49.2233 80.5494 49.3885 80.5101C49.5239 80.4772 49.7661 80.3542 50.0551 80.121C50.983 79.3767 52.8981 77.33 53.248 77.0274C57.2585 73.5572 61.5722 71.0021 66.0464 68.1985C66.3427 68.0114 66.4332 67.6191 66.2476 67.3223C66.062 67.0256 65.6701 66.9366 65.3733 67.1222C60.8422 69.961 56.4776 72.5546 52.4189 76.0675C52.1777 76.2747 50.9051 77.496 49.9946 78.3732Z" fill="#0B0B0B"/>
</g>
<defs>
<clipPath id="clip0_702_2813">
<rect width="72.3457" height="72.3457" fill="white" transform="translate(70.5779) rotate(75)"/>
</clipPath>
</defs>
</svg>
