<svg width="40" height="40" viewBox="0 0 40 40" fill="none" xmlns="http://www.w3.org/2000/svg">
<path fill-rule="evenodd" clip-rule="evenodd" d="M11.1878 13.645C10.4778 13.645 9.90282 13.0525 10.0128 12.3525C10.7003 8.1 13.9403 5 19.5628 5C25.1878 5 28.9803 8.4 28.9803 13.0375C28.9803 16.3975 27.3178 18.7575 24.5053 20.47C21.7553 22.1175 20.9703 23.265 20.9703 25.495V25.57C20.9703 25.9015 20.8386 26.2195 20.6042 26.4539C20.3698 26.6883 20.0518 26.82 19.7203 26.82H17.7953C17.4659 26.82 17.1499 26.69 16.9158 26.4583C16.6818 26.2266 16.5486 25.9118 16.5453 25.5825L16.5378 25.0825C16.4303 22.03 17.7303 20.08 20.6503 18.3025C23.2253 16.7225 24.1428 15.465 24.1428 13.2325C24.1428 10.785 22.2478 8.9875 19.3278 8.9875C16.8053 8.9875 15.0528 10.31 14.4828 12.4925C14.3178 13.1275 13.7878 13.645 13.1328 13.645H11.1903H11.1878ZM18.7403 35C20.2953 35 21.4778 33.815 21.4778 32.275C21.4778 30.73 20.2953 29.545 18.7403 29.545C17.2253 29.545 16.0228 30.73 16.0228 32.2725C16.0228 33.815 17.2253 35 18.7403 35Z" fill="black"/>
</svg>
