<svg width="70" height="70" viewBox="0 0 70 70" fill="none" xmlns="http://www.w3.org/2000/svg">
<path d="M63.8477 34.9999V56.8749C63.8404 59.7735 62.6858 62.5513 60.6362 64.6009C58.5865 66.6505 55.8087 67.8052 52.9102 67.8124H37.1875C36.6073 67.8124 36.0509 67.5819 35.6407 67.1717C35.2305 66.7615 35 66.2051 35 65.6249C35 65.0447 35.2305 64.4883 35.6407 64.0781C36.0509 63.6679 36.6073 63.4374 37.1875 63.4374H52.9102C54.6484 63.4302 56.3134 62.7365 57.5426 61.5073C58.7717 60.2782 59.4655 58.6132 59.4727 56.8749V56.4921C58.7711 56.7452 58.031 56.8747 57.2852 56.8749H52.9102C51.1697 56.8749 49.5005 56.1835 48.2698 54.9528C47.0391 53.7221 46.3477 52.0529 46.3477 50.3124V39.3749C46.3477 37.6344 47.0391 35.9652 48.2698 34.7345C49.5005 33.5038 51.1697 32.8124 52.9102 32.8124H59.3633C58.8149 26.8029 56.0284 21.2187 51.5564 17.167C47.0843 13.1153 41.2531 10.8919 35.2188 10.9374H35.1914C29.1535 10.8792 23.3153 13.0983 18.8406 17.1524C14.3658 21.2066 11.583 26.7981 11.0469 32.8124H17.5C19.2383 32.8196 20.9033 33.5133 22.1324 34.7425C23.3616 35.9716 24.0553 37.6366 24.0625 39.3749V50.3124C24.0553 52.0507 23.3616 53.7157 22.1324 54.9448C20.9033 56.174 19.2383 56.8677 17.5 56.8749H13.125C11.3867 56.8677 9.72171 56.174 8.49256 54.9448C7.26341 53.7157 6.5697 52.0507 6.5625 50.3124V34.9999C6.56242 31.2493 7.30427 27.5357 8.74534 24.073C10.1864 20.6102 12.2982 17.4668 14.9592 14.8236C17.6202 12.1804 20.7777 10.0897 24.2501 8.6719C27.7224 7.25409 31.4409 6.53717 35.1914 6.56241H35.4102C42.95 6.56965 50.179 9.56806 55.5105 14.8996C60.842 20.2311 63.8404 27.46 63.8477 34.9999V34.9999Z" fill="#FA7A68"/>
</svg>
