<svg width="197" height="148" viewBox="0 0 197 148" fill="none" xmlns="http://www.w3.org/2000/svg">
<path d="M7.66374 113.329C7.58985 113.088 7.80538 112.808 8.31032 112.49C8.81527 112.172 9.38897 111.915 10.0314 111.718C10.6739 111.521 11.2407 111.629 11.7317 112.043C12.2342 112.454 12.5822 112.975 12.7757 113.606C12.9692 114.237 13.0339 115.409 12.9697 117.124C12.9134 118.823 12.6902 119.732 12.3002 119.852C12.1396 119.901 11.9861 119.892 11.8397 119.824C11.7083 119.764 11.6197 119.659 11.574 119.51C11.3206 118.684 11.1877 117.432 11.1751 115.754C10.847 116.607 10.4268 117.345 9.91452 117.966C9.41371 118.584 8.82487 118.997 8.14798 119.205C7.48257 119.409 6.69302 119.331 5.77934 118.971C4.86565 118.611 4.30149 118.081 4.08686 117.381C3.70687 116.142 3.65353 114.659 3.92686 112.931C4.19667 111.191 4.73012 109.616 5.52721 108.204C6.32431 106.792 7.22192 105.933 8.22003 105.627C8.56421 105.521 9.00254 105.682 9.53504 106.109C10.079 106.532 10.4196 106.967 10.5568 107.414C10.6201 107.621 10.5772 107.747 10.4281 107.793C10.4052 107.8 10.2891 107.81 10.08 107.824C9.87091 107.838 9.62295 107.889 9.33613 107.977C8.56747 108.213 7.90298 108.85 7.34268 109.887C6.77885 110.914 6.42046 112.078 6.26752 113.38C6.11457 114.682 6.19291 115.838 6.50254 116.848C6.59402 117.146 6.83479 117.235 7.22486 117.116C7.76407 116.95 8.34986 116.507 8.98222 115.786C9.62605 115.061 10.0687 114.336 10.3103 113.609C10.0614 113.698 9.75338 113.799 9.38625 113.911C9.0306 114.02 8.67021 114.011 8.30507 113.885C7.9514 113.755 7.73763 113.569 7.66374 113.329ZM21.8159 108.969C21.9883 109.532 21.7587 110.154 21.1273 110.837C20.5073 111.517 19.7958 111.98 18.9927 112.226C18.1896 112.473 17.5124 112.618 16.9609 112.661C16.9527 113.003 16.996 113.328 17.091 113.638C17.186 113.948 17.3063 114.156 17.4518 114.262C17.5937 114.356 17.8712 114.34 18.2842 114.213C19.1447 113.95 19.8543 113.644 20.4131 113.297C20.9833 112.946 21.2799 112.768 21.3029 112.761C21.7732 112.616 22.0559 112.699 22.1509 113.009C22.2882 113.456 22.0455 113.995 21.4229 114.625C20.8118 115.252 20.0187 115.715 19.0435 116.014C18.0798 116.31 17.2122 116.243 16.4406 115.814C15.669 115.386 15.1565 114.758 14.9032 113.932C14.6464 113.095 14.6199 112.149 14.8238 111.095C15.0391 110.037 15.4207 109.092 15.9685 108.259C16.5127 107.414 17.1462 106.881 17.869 106.659C18.6032 106.434 19.391 106.588 20.2321 107.121C21.0698 107.642 21.5977 108.258 21.8159 108.969ZM19.7352 109.306C19.7 109.192 19.5285 109.062 19.2207 108.918C18.913 108.774 18.6501 108.735 18.4321 108.802C18.2256 108.866 18.0035 109.103 17.7658 109.515C17.5246 109.915 17.3287 110.402 17.1782 110.975C17.285 110.955 17.4359 110.915 17.6309 110.855C19.2026 110.373 19.9041 109.857 19.7352 109.306ZM27.1235 106.061C27.1268 106.399 27.1228 106.878 27.1116 107.496C27.1084 108.099 27.1033 108.86 27.0963 109.779C27.1008 110.694 27.1118 111.18 27.1294 111.237C27.1434 111.283 27.2423 111.278 27.4258 111.222C27.6209 111.162 28.0353 110.897 28.6692 110.426C29.2996 109.944 29.6779 109.684 29.8041 109.645C30.0909 109.557 30.2941 109.708 30.4137 110.098C30.5334 110.488 30.2933 111.076 29.6935 111.863C29.0902 112.638 28.3698 113.154 27.5323 113.411C27.1652 113.523 26.6677 113.456 26.0397 113.209C25.4118 112.963 25.0345 112.633 24.9078 112.22C24.8023 111.876 24.7527 111.1 24.7591 109.893C24.7735 108.671 24.7804 107.834 24.7799 107.383C24.3712 107.646 24.0521 107.813 23.8227 107.883C23.5932 107.954 23.3048 107.873 22.9574 107.64C22.6065 107.397 22.387 107.131 22.2991 106.844C22.1865 106.477 22.9806 105.895 24.6815 105.097C24.5722 103.963 24.398 103.006 24.1587 102.226C24.0532 101.882 24.1725 101.657 24.5167 101.552C24.8149 101.46 25.2498 101.528 25.8213 101.754C26.4008 101.965 26.745 102.249 26.8541 102.605C26.9597 102.949 27.0346 103.459 27.079 104.136C27.6226 103.944 28.0379 103.804 28.3247 103.716C29.1851 103.452 29.6752 103.515 29.7948 103.905C29.8722 104.158 29.6867 104.453 29.2382 104.792C28.7976 105.115 28.0927 105.538 27.1235 106.061ZM45.9947 102.401C46.2575 102.522 46.4118 102.656 46.4575 102.806C46.5032 102.955 46.5294 103.286 46.536 103.798C46.5426 104.311 46.5634 104.706 46.5984 104.984C46.6299 105.25 46.6514 105.463 46.6627 105.623C46.6855 105.779 46.7052 105.905 46.7219 106C46.735 106.084 46.7438 106.195 46.748 106.331C46.7638 106.465 46.7725 106.575 46.7742 106.662C46.7839 106.734 46.7873 106.828 46.7845 106.941C46.7897 107.04 46.7839 107.124 46.7671 107.191C46.7468 107.248 46.7224 107.312 46.6941 107.383C46.6535 107.496 46.5528 107.577 46.3922 107.627C46.2316 107.676 45.9815 107.577 45.6421 107.329C45.3141 107.079 45.0224 106.741 44.767 106.318C44.0263 107.75 43.2889 108.578 42.5546 108.803C42.0613 108.955 41.4451 108.849 40.7061 108.485C39.9636 108.111 39.5097 107.654 39.3443 107.115C39.1754 106.564 39.1828 105.708 39.3665 104.547C39.5502 103.386 39.9346 102.245 40.5197 101.125C41.1162 100 41.8333 99.3097 42.6708 99.0529C43.1526 98.9051 43.7952 99.0155 44.5986 99.3842C45.402 99.7528 45.8759 100.172 46.0201 100.643C46.1609 101.102 46.1524 101.688 45.9947 102.401ZM41.8208 106.656C42.2797 106.516 42.7927 106.019 43.3599 105.168C43.9351 104.301 44.1684 103.363 44.0599 102.355C44.0292 102.213 44.1021 102.103 44.2786 102.024C44.0436 101.381 43.8344 101.087 43.6508 101.143C43.1919 101.284 42.7671 101.741 42.3764 102.513C41.9972 103.282 41.7279 104.061 41.5684 104.851C41.4203 105.637 41.3955 106.19 41.494 106.512C41.5222 106.603 41.553 106.663 41.5865 106.69C41.628 106.703 41.7061 106.691 41.8208 106.656ZM48.6399 103.981C48.3937 103.178 48.3751 102.217 48.5844 101.099C48.7936 99.9804 49.2 98.952 49.8034 98.0139C50.4183 97.0722 51.1216 96.48 51.9132 96.2372C52.3147 96.114 52.8087 96.2512 53.395 96.6488C53.9778 97.0349 54.3326 97.4344 54.4592 97.8474C54.5507 98.1457 54.4588 98.3371 54.1834 98.4215C54.0458 98.4638 53.8371 98.4587 53.5575 98.4064C53.2779 98.3541 53.0118 98.3666 52.7595 98.444C52.5071 98.5214 52.2125 98.8503 51.8758 99.4305C51.5471 99.9957 51.2924 100.639 51.1118 101.359C50.9391 102.065 50.9055 102.59 51.0111 102.934C51.1167 103.278 51.2484 103.483 51.4062 103.547C51.5756 103.608 51.9126 103.561 52.4174 103.406C52.9337 103.248 53.3843 103.06 53.7691 102.841C54.1655 102.619 54.4471 102.433 54.614 102.281C54.7888 102.114 54.9565 102.006 55.1171 101.957C55.4384 101.859 55.6412 101.947 55.7257 102.222C55.8805 102.727 55.5971 103.379 54.8756 104.178C54.1505 104.965 53.3463 105.494 52.4629 105.765C51.9007 105.937 51.1633 105.824 50.2505 105.427C49.3457 105.014 48.8088 104.532 48.6399 103.981ZM57.5758 101.241C57.3295 100.438 57.311 99.4769 57.5202 98.3584C57.7295 97.2399 58.1358 96.2115 58.7393 95.2734C59.3542 94.3317 60.0574 93.7395 60.849 93.4967C61.2506 93.3735 61.7445 93.5107 62.3309 93.9083C62.9137 94.2944 63.2684 94.6939 63.3951 95.1069C63.4866 95.4052 63.3946 95.5966 63.1193 95.681C62.9816 95.7233 62.773 95.7182 62.4933 95.6659C62.2137 95.6136 61.9477 95.6261 61.6953 95.7035C61.4429 95.781 61.1484 96.1098 60.8117 96.69C60.483 97.2552 60.2283 97.8981 60.0477 98.6188C59.875 99.3244 59.8414 99.8493 59.9469 100.194C60.0525 100.538 60.1842 100.742 60.3421 100.807C60.5114 100.868 60.8485 100.821 61.3533 100.666C61.8695 100.508 62.3201 100.319 62.705 100.101C63.1013 99.8788 63.3829 99.692 63.5498 99.5404C63.7246 99.3738 63.8924 99.2659 64.053 99.2167C64.3742 99.1181 64.5771 99.2066 64.6615 99.4819C64.8163 99.9867 64.533 100.638 63.8114 101.437C63.0864 102.224 62.2821 102.753 61.3987 103.024C60.8366 103.197 60.0991 103.084 59.1864 102.686C58.2815 102.273 57.7447 101.791 57.5758 101.241ZM73.3135 93.1759C73.4859 93.7381 73.2563 94.3608 72.6249 95.0439C72.0049 95.7236 71.2934 96.1866 70.4903 96.4328C69.6872 96.6791 69.01 96.8241 68.4585 96.8677C68.4503 97.2091 68.4936 97.5347 68.5886 97.8445C68.6836 98.1542 68.8039 98.3621 68.9494 98.4681C69.0913 98.5627 69.3688 98.5466 69.7818 98.4199C70.6423 98.156 71.3519 97.8505 71.9107 97.5035C72.4809 97.1528 72.7775 96.974 72.8005 96.967C73.2708 96.8227 73.5535 96.9055 73.6485 97.2152C73.7857 97.6627 73.5431 98.2015 72.9205 98.8317C72.3094 99.4585 71.5163 99.9214 70.5411 100.22C69.5774 100.516 68.7098 100.449 67.9382 100.021C67.1666 99.5922 66.6541 98.9649 66.4008 98.1389C66.144 97.3014 66.1175 96.3556 66.3214 95.3015C66.5367 94.2439 66.9183 93.2984 67.4661 92.4652C68.0103 91.6205 68.6438 91.0873 69.3666 90.8656C70.1008 90.6405 70.8886 90.7943 71.7297 91.327C72.5674 91.8483 73.0953 92.4646 73.3135 93.1759ZM71.2328 93.5128C71.1976 93.3981 71.0261 93.2687 70.7183 93.1246C70.4106 92.9805 70.1477 92.9419 69.9297 93.0087C69.7232 93.0721 69.5011 93.3096 69.2634 93.7214C69.0222 94.1217 68.8263 94.6086 68.6758 95.1819C68.7826 95.1617 68.9335 95.1217 69.1285 95.0619C70.7002 94.5799 71.4017 94.0635 71.2328 93.5128ZM79.0309 87.9206C79.4669 87.7869 79.9762 87.9131 80.5591 88.2991C81.1419 88.6852 81.4966 89.0848 81.6233 89.4978C81.7077 89.7731 81.6295 89.9478 81.3886 90.0216C81.2509 90.0639 81.0343 90.0738 80.7388 90.0515C80.4397 90.0177 80.1525 90.043 79.8772 90.1274C79.6133 90.2084 79.2456 90.4215 78.7742 90.7669C78.3142 91.1088 78.13 91.4289 78.2215 91.7272C78.2566 91.8419 78.4625 91.9608 78.8392 92.0838C79.2158 92.2068 79.6228 92.3267 80.0603 92.4435C80.4978 92.5604 80.9348 92.7778 81.3712 93.0959C81.8041 93.4024 82.0944 93.7966 82.2422 94.2784C82.3865 94.7488 82.1826 95.3322 81.6305 96.0287C81.0899 96.7217 80.3493 97.2124 79.4085 97.5009C78.4792 97.7859 77.6168 97.8182 76.8212 97.5978C76.0256 97.3774 75.5592 97.0435 75.422 96.596C75.2848 96.1486 75.3997 95.8686 75.7668 95.756C75.916 95.7103 76.1114 95.7131 76.3531 95.7645C77.0288 95.9213 77.7911 95.8695 78.64 95.6091C79.5005 95.3452 79.8955 95.0985 79.8252 94.8691C79.7548 94.6396 79.511 94.4383 79.0939 94.265C78.6847 94.0767 78.2481 93.9219 77.7842 93.8006C77.3317 93.6757 76.8863 93.4923 76.448 93.2501C76.0177 92.993 75.7516 92.6981 75.6495 92.3654C75.4595 91.7458 75.8159 90.9023 76.7185 89.8347C77.6176 88.7557 78.3884 88.1176 79.0309 87.9206ZM87.5802 85.2986C88.0162 85.1649 88.5256 85.2911 89.1084 85.6772C89.6912 86.0633 90.0459 86.4628 90.1726 86.8758C90.2571 87.1512 90.1788 87.3258 89.9379 87.3997C89.8002 87.4419 89.5836 87.4519 89.2881 87.4295C88.989 87.3957 88.7018 87.421 88.4265 87.5055C88.1626 87.5864 87.795 87.7996 87.3235 88.145C86.8635 88.4869 86.6793 88.807 86.7708 89.1053C86.806 89.22 87.0119 89.3388 87.3885 89.4618C87.7651 89.5848 88.1721 89.7047 88.6096 89.8216C89.0471 89.9384 89.4841 90.1559 89.9205 90.4739C90.3534 90.7804 90.6438 91.1746 90.7915 91.6565C90.9358 92.1269 90.7319 92.7103 90.1798 93.4068C89.6393 94.0997 88.8986 94.5905 87.9578 94.879C87.0286 95.164 86.1661 95.1963 85.3705 94.9758C84.5749 94.7554 84.1085 94.4215 83.9713 93.9741C83.8341 93.5266 83.949 93.2466 84.3162 93.134C84.4653 93.0883 84.6607 93.0911 84.9024 93.1425C85.5781 93.2993 86.3404 93.2475 87.1894 92.9871C88.0498 92.7233 88.4448 92.4766 88.3745 92.2471C88.3041 92.0177 88.0604 91.8163 87.6432 91.643C87.234 91.4547 86.7974 91.2999 86.3335 91.1786C85.881 91.0538 85.4356 90.8703 84.9974 90.6282C84.5671 90.371 84.3009 90.0761 84.1989 89.7434C84.0089 89.1239 84.3652 88.2803 85.2678 87.2128C86.167 86.1337 86.9378 85.4957 87.5802 85.2986ZM102.857 82.835C102.861 83.1729 102.857 83.6511 102.846 84.2695C102.842 84.873 102.837 85.6339 102.83 86.5523C102.835 87.4672 102.846 87.9534 102.863 88.0107C102.877 88.0566 102.976 88.0514 103.16 87.9951C103.355 87.9353 103.769 87.6701 104.403 87.1996C105.033 86.7176 105.412 86.4572 105.538 86.4185C105.825 86.3306 106.028 86.4816 106.148 86.8717C106.267 87.2618 106.027 87.85 105.427 88.6364C104.824 89.4114 104.104 89.9273 103.266 90.1841C102.899 90.2967 102.402 90.2296 101.774 89.9829C101.146 89.7362 100.768 89.4063 100.642 88.9933C100.536 88.6491 100.487 87.8736 100.493 86.6667C100.507 85.4447 100.514 84.6079 100.514 84.1562C100.105 84.4196 99.786 84.5865 99.5566 84.6569C99.3271 84.7273 99.0387 84.6463 98.6913 84.4139C98.3404 84.1701 98.1209 83.9048 98.033 83.6179C97.9204 83.2508 98.7145 82.6684 100.415 81.8706C100.306 80.7368 100.132 79.7799 99.8926 78.9997C99.7871 78.6555 99.9064 78.4307 100.251 78.3251C100.549 78.2336 100.984 78.3011 101.555 78.5275C102.135 78.7389 102.479 79.0224 102.588 79.378C102.694 79.7222 102.769 80.2327 102.813 80.9094C103.357 80.7176 103.772 80.5777 104.059 80.4897C104.919 80.2258 105.409 80.2889 105.529 80.679C105.606 80.9314 105.421 81.2268 104.972 81.5651C104.532 81.8885 103.827 82.3118 102.857 82.835ZM110.664 85.9949C111.199 85.5295 111.568 84.8078 111.77 83.8295C111.972 82.8513 111.96 81.995 111.735 81.2608C111.51 80.5265 111.252 80.0534 110.961 79.8414C110.556 80.2795 110.247 81.0331 110.035 82.1022C109.835 83.1678 109.842 84.0505 110.057 84.7503C110.268 85.4387 110.47 85.8535 110.664 85.9949ZM107.803 85.6296C107.364 84.1956 107.388 82.7006 107.878 81.1447C108.378 79.5854 109.065 78.672 109.937 78.4046C110.809 78.1372 111.638 78.2218 112.424 78.6583C113.207 79.0834 113.733 79.7319 114 80.6038C114.264 81.4643 114.327 82.4053 114.188 83.4268C114.049 84.4483 113.699 85.3717 113.136 86.197C112.57 87.0108 111.862 87.5479 111.013 87.8082C110.382 88.0018 109.751 87.8878 109.12 87.4664C108.488 87.045 108.05 86.4327 107.803 85.6296ZM17.3236 134.206C17.5864 134.326 17.7407 134.461 17.7864 134.61C17.8322 134.759 17.8583 135.09 17.8649 135.602C17.8715 136.115 17.8923 136.51 17.9274 136.788C17.9589 137.055 17.9803 137.268 17.9916 137.428C18.0144 137.584 18.0342 137.709 18.0508 137.805C18.064 137.889 18.0727 137.999 18.077 138.136C18.0928 138.269 18.1015 138.379 18.1032 138.467C18.1128 138.539 18.1162 138.632 18.1135 138.746C18.1187 138.845 18.1129 138.928 18.0961 138.996C18.0757 139.052 18.0514 139.116 18.0231 139.188C17.9824 139.301 17.8817 139.382 17.7211 139.431C17.5605 139.48 17.3105 139.381 16.971 139.134C16.6431 138.883 16.3514 138.546 16.0959 138.122C15.3552 139.554 14.6178 140.383 13.8836 140.608C13.3902 140.759 12.7741 140.653 12.0351 140.29C11.2926 139.915 10.8386 139.458 10.6732 138.919C10.5044 138.368 10.5118 137.512 10.6955 136.352C10.8792 135.191 11.2635 134.05 11.8486 132.929C12.4452 131.805 13.1622 131.114 13.9997 130.857C14.4816 130.709 15.1242 130.82 15.9276 131.189C16.731 131.557 17.2048 131.977 17.3491 132.447C17.4898 132.906 17.4813 133.492 17.3236 134.206ZM13.1497 138.461C13.6086 138.32 14.1217 137.824 14.6889 136.972C15.264 136.105 15.4974 135.168 15.3889 134.159C15.3581 134.018 15.431 133.908 15.6075 133.828C15.3726 133.185 15.1633 132.891 14.9797 132.948C14.5208 133.088 14.0961 133.545 13.7054 134.318C13.3262 135.087 13.0568 135.866 12.8973 136.655C12.7492 137.441 12.7245 137.995 12.823 138.316C12.8511 138.408 12.882 138.467 12.9155 138.495C12.9569 138.507 13.035 138.496 13.1497 138.461ZM19.0229 124.045C19.2982 123.961 19.7313 124.104 20.3221 124.475C20.9128 124.846 21.2786 125.261 21.4193 125.72C21.5601 126.179 21.7428 127.02 21.9675 128.244C22.1887 129.457 22.3321 130.436 22.3976 131.181C22.719 135.626 22.6905 137.907 22.3119 138.023C22.0595 138.1 21.6824 137.996 21.1807 137.711C20.6869 137.411 20.3995 137.128 20.3186 136.865C20.3116 136.842 20.2835 136.197 20.2344 134.932C20.1852 133.667 20.0341 132.069 19.7809 130.139C19.5356 128.193 19.1562 126.383 18.6425 124.708C18.5404 124.375 18.6672 124.154 19.0229 124.045ZM24.1103 122.485C24.3856 122.4 24.8187 122.544 25.4094 122.915C26.0002 123.286 26.366 123.701 26.5067 124.16C26.6474 124.619 26.8302 125.46 27.0549 126.684C27.2761 127.896 27.4195 128.875 27.4849 129.621C27.8064 134.066 27.7778 136.347 27.3992 136.463C27.1469 136.54 26.7698 136.436 26.268 136.151C25.7743 135.85 25.4869 135.568 25.406 135.304C25.3989 135.281 25.3709 134.637 25.3217 133.372C25.2726 132.107 25.1214 130.509 24.8682 128.578C24.623 126.633 24.2435 124.822 23.7298 123.147C23.6278 122.815 23.7546 122.594 24.1103 122.485ZM40.4718 124.979C40.475 125.317 40.471 125.795 40.4598 126.414C40.4566 127.017 40.4515 127.778 40.4445 128.696C40.449 129.611 40.46 130.098 40.4776 130.155C40.4916 130.201 40.5905 130.196 40.774 130.139C40.9691 130.079 41.3835 129.814 42.0174 129.344C42.6478 128.862 43.0261 128.601 43.1523 128.563C43.4391 128.475 43.6423 128.626 43.7619 129.016C43.8816 129.406 43.6415 129.994 43.0417 130.781C42.4384 131.556 41.718 132.071 40.8805 132.328C40.5134 132.441 40.0159 132.374 39.3879 132.127C38.76 131.88 38.3827 131.55 38.256 131.137C38.1505 130.793 38.1009 130.018 38.1073 128.811C38.1217 127.589 38.1286 126.752 38.1281 126.3C37.7194 126.564 37.4003 126.731 37.1709 126.801C36.9414 126.871 36.653 126.79 36.3056 126.558C35.9547 126.314 35.7352 126.049 35.6473 125.762C35.5347 125.395 36.3288 124.813 38.0297 124.015C37.9204 122.881 37.7462 121.924 37.5069 121.144C37.4014 120.8 37.5207 120.575 37.8649 120.469C38.1631 120.378 38.598 120.445 39.1695 120.672C39.749 120.883 40.0932 121.167 40.2023 121.522C40.3079 121.866 40.3828 122.377 40.4272 123.054C40.9709 122.862 41.3861 122.722 41.6729 122.634C42.5333 122.37 43.0234 122.433 43.143 122.823C43.2204 123.076 43.0349 123.371 42.5864 123.709C42.1458 124.033 41.441 124.456 40.4718 124.979ZM44.5621 117.003C44.4143 116.521 44.5297 116.222 44.9083 116.106C45.218 116.011 45.6529 116.16 46.2127 116.554C46.7726 116.947 47.1088 117.327 47.2214 117.694C47.334 118.061 47.4178 118.6 47.4727 119.311C47.5276 120.022 47.5592 120.678 47.5675 121.278C47.5872 121.874 47.5988 122.731 47.6022 123.847C47.6021 124.951 47.6062 125.722 47.6146 126.159C47.8959 124.416 48.3035 122.941 48.8375 121.736C49.383 120.527 49.9368 119.836 50.499 119.663C50.8546 119.554 51.3586 119.745 52.0111 120.235C52.66 120.714 53.0618 121.206 53.2166 121.711C53.3679 122.204 53.4978 122.955 53.6063 123.963C53.7148 124.972 53.675 125.988 53.487 127.012C53.299 128.036 52.9641 128.622 52.4823 128.77C52.1037 128.886 51.8317 128.675 51.6663 128.136C51.5467 127.745 51.4662 127.074 51.4247 126.12C51.3528 124.698 51.2728 123.844 51.1849 123.557C51.0969 123.271 51.007 123.141 50.9153 123.169C50.2498 123.374 49.6142 124.78 49.0083 127.388C48.8046 128.279 48.6099 128.954 48.4242 129.412C48.25 129.867 48.0309 130.135 47.767 130.216C47.5032 130.297 47.1169 130.183 46.6081 129.875C46.1108 129.563 45.8269 129.293 45.7566 129.063C45.6827 128.822 45.6212 128.458 45.5723 127.971C45.5348 127.481 45.4834 126.781 45.4181 125.872C45.3642 124.96 45.2254 123.32 45.0017 120.954C44.786 118.573 44.6395 117.256 44.5621 117.003ZM62.5766 119.48C62.749 120.042 62.5195 120.665 61.8881 121.348C61.2681 122.028 60.5566 122.491 59.7535 122.737C58.9504 122.983 58.2731 123.128 57.7217 123.172C57.7134 123.513 57.7568 123.839 57.8518 124.149C57.9468 124.458 58.067 124.666 58.2125 124.772C58.3545 124.867 58.632 124.851 59.045 124.724C59.9054 124.46 60.615 124.155 61.1738 123.808C61.7441 123.457 62.0407 123.278 62.0636 123.271C62.534 123.127 62.8167 123.21 62.9117 123.519C63.0489 123.967 62.8062 124.506 62.1837 125.136C61.5726 125.763 60.7794 126.226 59.8043 126.525C58.8406 126.82 57.9729 126.754 57.2013 126.325C56.4298 125.896 55.9173 125.269 55.664 124.443C55.4071 123.606 55.3806 122.66 55.5845 121.606C55.7999 120.548 56.1815 119.603 56.7292 118.769C57.2735 117.925 57.907 117.392 58.6298 117.17C59.364 116.945 60.1517 117.098 60.9929 117.631C61.8306 118.153 62.3585 118.769 62.5766 119.48ZM60.4959 119.817C60.4608 119.702 60.2893 119.573 59.9815 119.429C59.6737 119.285 59.4109 119.246 59.1929 119.313C58.9864 119.376 58.7643 119.614 58.5266 120.026C58.2853 120.426 58.0895 120.913 57.939 121.486C58.0457 121.466 58.1966 121.426 58.3917 121.366C59.9634 120.884 60.6648 120.368 60.4959 119.817ZM76.1889 111.804C76.6134 111.673 77.1827 111.913 77.8967 112.522C78.6223 113.128 79.1012 113.81 79.3334 114.567C79.4741 115.026 79.4462 115.631 79.2497 116.381C79.0531 117.132 78.7427 117.88 78.3186 118.625C77.9024 119.355 77.364 120.035 76.7035 120.664C76.0545 121.29 75.38 121.71 74.6802 121.925L74.4737 121.988C74.6728 125.216 74.6231 126.875 74.3249 126.967C74.0839 127.04 73.77 126.917 73.3829 126.596C72.9845 126.279 72.7448 125.989 72.6638 125.725C72.5829 125.461 72.5012 124.601 72.4187 123.145C72.1739 118.827 71.7383 115.647 71.1121 113.605C71.0065 113.261 71.1201 113.038 71.4528 112.936C71.7281 112.852 72.1255 112.899 72.645 113.079C73.1645 113.258 73.5515 113.579 73.8061 114.041C74.4998 112.824 75.294 112.078 76.1889 111.804ZM74.3791 119.777C75.2212 119.33 75.9131 118.578 76.4549 117.521C77.0082 116.46 77.1934 115.631 77.0104 115.035C76.8274 114.438 76.5696 114.191 76.2369 114.293C75.7551 114.441 75.329 114.873 74.9586 115.589C74.811 115.885 74.6739 116.297 74.5473 116.826C74.4206 117.354 74.3512 117.946 74.3392 118.603L74.3791 119.777ZM88.2511 112.453C88.5139 112.574 88.6682 112.708 88.714 112.857C88.7597 113.007 88.7859 113.337 88.7924 113.85C88.799 114.363 88.8198 114.758 88.8549 115.036C88.8864 115.302 88.9078 115.515 88.9191 115.675C88.9419 115.831 88.9617 115.957 88.9783 116.052C88.9915 116.136 89.0002 116.246 89.0045 116.383C89.0203 116.516 89.029 116.627 89.0307 116.714C89.0403 116.786 89.0437 116.88 89.041 116.993C89.0462 117.092 89.0404 117.176 89.0236 117.243C89.0032 117.3 88.9789 117.364 88.9506 117.435C88.9099 117.548 88.8093 117.629 88.6486 117.678C88.488 117.728 88.238 117.629 87.8986 117.381C87.5706 117.13 87.2789 116.793 87.0234 116.369C86.2828 117.802 85.5453 118.63 84.8111 118.855C84.3177 119.007 83.7016 118.901 82.9626 118.537C82.2201 118.163 81.7661 117.706 81.6008 117.166C81.4319 116.616 81.4393 115.76 81.623 114.599C81.8067 113.438 82.1911 112.297 82.7761 111.177C83.3727 110.052 84.0897 109.362 84.9272 109.105C85.4091 108.957 86.0517 109.067 86.8551 109.436C87.6585 109.805 88.1323 110.224 88.2766 110.695C88.4173 111.154 88.4088 111.74 88.2511 112.453ZM84.0772 116.708C84.5361 116.567 85.0492 116.071 85.6164 115.219C86.1915 114.353 86.4249 113.415 86.3164 112.407C86.2856 112.265 86.3585 112.155 86.5351 112.076C86.3001 111.433 86.0908 111.139 85.9073 111.195C85.4484 111.336 85.0236 111.793 84.6329 112.565C84.2537 113.334 83.9843 114.113 83.8248 114.903C83.6767 115.689 83.652 116.242 83.7505 116.564C83.7786 116.655 83.8095 116.715 83.843 116.742C83.8844 116.755 83.9625 116.743 84.0772 116.708ZM96.9392 109.488C97.1711 109.63 97.3293 109.839 97.4137 110.114C97.4982 110.389 97.4872 110.763 97.3809 111.235C97.3052 112.011 97.3149 112.943 97.4101 114.031C97.5053 115.119 97.5371 116.001 97.5056 116.675C97.4891 117.358 97.4215 117.956 97.3028 118.47C97.1956 118.98 96.9737 119.443 96.6372 119.86C96.3007 120.277 95.8571 120.57 95.3064 120.739C94.5377 120.975 93.7719 120.933 93.0091 120.615C92.2462 120.297 91.8085 119.954 91.6959 119.587C91.5868 119.231 91.5841 118.874 91.6876 118.516C91.7947 118.17 91.9285 117.972 92.0892 117.922C92.2612 117.87 92.45 117.912 92.6555 118.05C92.8724 118.184 93.0756 118.335 93.2651 118.503C93.4696 118.679 93.709 118.825 93.9833 118.942C94.2576 119.059 94.5267 119.076 94.7905 118.996C95.0544 118.915 95.2425 118.669 95.355 118.258C95.4674 117.847 95.5194 117.423 95.511 116.986C95.5093 115.957 95.4813 115.232 95.427 114.809C94.7946 115.53 94.2318 115.966 93.7384 116.118C93.2566 116.265 92.7053 116.146 92.0845 115.759C91.4603 115.36 91.076 114.926 90.9317 114.455C90.784 113.974 90.7272 113.338 90.7615 112.55C90.8037 111.746 90.9165 110.927 91.0999 110.092C91.2912 109.243 91.6175 108.465 92.0787 107.759C92.5513 107.049 93.1032 106.597 93.7341 106.404C94.1586 106.274 94.5534 106.272 94.9186 106.398C95.2802 106.513 95.5844 106.728 95.8311 107.041C96.262 107.587 96.5971 108.25 96.8364 109.03C96.8716 109.144 96.9058 109.297 96.9392 109.488ZM93.022 113.72C93.0678 113.869 93.1538 113.925 93.28 113.886C93.6127 113.784 94.0586 113.314 94.6179 112.478C95.1771 111.641 95.4914 110.886 95.5609 110.212L95.4606 109.885C95.2319 109.139 95.0241 108.707 94.8372 108.588C94.7437 108.529 94.6396 108.517 94.5249 108.552C93.9742 108.721 93.5438 109.487 93.2338 110.85C92.9237 112.213 92.8532 113.17 93.022 113.72ZM106.5 106.01C106.672 106.572 106.443 107.194 105.811 107.878C105.191 108.557 104.48 109.02 103.676 109.267C102.873 109.513 102.196 109.658 101.645 109.701C101.636 110.043 101.68 110.368 101.775 110.678C101.87 110.988 101.99 111.196 102.136 111.302C102.277 111.396 102.555 111.38 102.968 111.254C103.828 110.99 104.538 110.684 105.097 110.337C105.667 109.987 105.964 109.808 105.987 109.801C106.457 109.656 106.74 109.739 106.835 110.049C106.972 110.496 106.729 111.035 106.107 111.665C105.496 112.292 104.702 112.755 103.727 113.054C102.764 113.35 101.896 113.283 101.124 112.855C100.353 112.426 99.8403 111.799 99.587 110.973C99.3301 110.135 99.3036 109.189 99.5075 108.135C99.7229 107.078 100.104 106.132 100.652 105.299C101.196 104.454 101.83 103.921 102.553 103.699C103.287 103.474 104.075 103.628 104.916 104.161C105.754 104.682 106.281 105.298 106.5 106.01ZM104.419 106.346C104.384 106.232 104.212 106.102 103.905 105.958C103.597 105.814 103.334 105.776 103.116 105.842C102.909 105.906 102.687 106.143 102.45 106.555C102.208 106.955 102.012 107.442 101.862 108.016C101.969 107.995 102.12 107.955 102.315 107.896C103.886 107.414 104.588 106.897 104.419 106.346ZM112.217 100.754C112.653 100.621 113.162 100.747 113.745 101.133C114.328 101.519 114.683 101.918 114.809 102.331C114.894 102.607 114.816 102.781 114.575 102.855C114.437 102.898 114.22 102.907 113.925 102.885C113.626 102.851 113.339 102.877 113.063 102.961C112.799 103.042 112.432 103.255 111.96 103.601C111.5 103.943 111.316 104.263 111.408 104.561C111.443 104.676 111.649 104.794 112.025 104.917C112.402 105.04 112.809 105.16 113.246 105.277C113.684 105.394 114.121 105.612 114.557 105.93C114.99 106.236 115.281 106.63 115.428 107.112C115.573 107.582 115.369 108.166 114.817 108.862C114.276 109.555 113.535 110.046 112.595 110.335C111.665 110.62 110.803 110.652 110.007 110.431C109.212 110.211 108.745 109.877 108.608 109.43C108.471 108.982 108.586 108.702 108.953 108.59C109.102 108.544 109.298 108.547 109.539 108.598C110.215 108.755 110.977 108.703 111.826 108.443C112.687 108.179 113.082 107.932 113.011 107.703C112.941 107.473 112.697 107.272 112.28 107.099C111.871 106.91 111.434 106.756 110.97 106.634C110.518 106.509 110.072 106.326 109.634 106.084C109.204 105.827 108.938 105.532 108.836 105.199C108.646 104.58 109.002 103.736 109.905 102.668C110.804 101.589 111.575 100.951 112.217 100.754Z" fill="#0B0B0B"/>
<g clip-path="url(#clip0_1297_1380)">
<path fill-rule="evenodd" clip-rule="evenodd" d="M139.089 84.8612C164.68 67.2648 165.899 35.9334 156.236 8.60656C156.071 8.1369 156.316 7.61987 156.786 7.45477C157.256 7.28968 157.773 7.53541 157.938 8.00508C167.874 36.0967 166.419 68.2599 140.11 86.349C139.701 86.6316 139.139 86.5271 138.855 86.1158C138.573 85.7065 138.677 85.1449 139.089 84.8612Z" fill="black"/>
<path fill-rule="evenodd" clip-rule="evenodd" d="M157.269 8.81845C156.994 10.3804 156.671 12.3445 156.627 12.5663C155.457 18.5775 153.417 24.085 150.502 29.4851C150.266 29.9237 149.717 30.0872 149.278 29.8511C148.84 29.6151 148.676 29.066 148.912 28.6274C151.741 23.3918 153.721 18.051 154.855 12.2199C154.921 11.8801 155.645 7.46439 155.859 6.58251C155.945 6.22039 156.106 6.04217 156.148 6.00373C156.363 5.79117 156.591 5.74269 156.772 5.73977C156.977 5.73802 157.315 5.81754 157.627 6.14144C157.952 6.48173 158.45 7.34882 158.593 7.55755C160.764 10.7009 162.914 14.3984 165.593 17.4085C168.148 20.2792 171.189 22.5275 175.261 22.9253C175.757 22.9733 176.12 23.4167 176.072 23.9125C176.024 24.4083 175.581 24.7713 175.085 24.7233C170.532 24.2776 167.1 21.8179 164.245 18.6101C161.581 15.6174 159.425 11.9668 157.269 8.81845Z" fill="black"/>
</g>
<defs>
<clipPath id="clip0_1297_1380">
<rect width="65.3585" height="65.3585" fill="white" transform="matrix(0.441506 0.897258 0.897258 -0.441506 108.502 29.3574)"/>
</clipPath>
</defs>
</svg>
