<svg width="70" height="70" viewBox="0 0 70 70" fill="none" xmlns="http://www.w3.org/2000/svg">
<path d="M60.1589 46.2385L35.0027 60.8947L9.84641 46.2385C9.34996 46.0004 8.78198 45.9582 8.25582 46.1205C7.72967 46.2827 7.28405 46.6374 7.0079 47.1137C6.73176 47.5901 6.64541 48.153 6.76608 48.6903C6.88675 49.2275 7.20558 49.6994 7.65891 50.0119L33.9089 65.3244C34.2396 65.5219 34.6175 65.6262 35.0027 65.6262C35.3878 65.6262 35.7658 65.5219 36.0964 65.3244L62.3464 50.0119C62.6184 49.8815 62.8605 49.6962 63.0574 49.4677C63.2543 49.2392 63.4019 48.9724 63.4908 48.6841C63.5797 48.3959 63.608 48.0923 63.5739 47.7926C63.5399 47.4929 63.4442 47.2034 63.2929 46.9425C63.1416 46.6815 62.938 46.4546 62.6948 46.2761C62.4516 46.0976 62.1741 45.9713 61.8798 45.9052C61.5855 45.8391 61.2807 45.8346 60.9845 45.8919C60.6884 45.9493 60.4073 46.0673 60.1589 46.2385V46.2385Z" fill="#C9FA75"/>
<path d="M60.1589 33.1135L35.0027 47.7697L9.84641 33.1135C9.34996 32.8754 8.78198 32.8332 8.25582 32.9955C7.72967 33.1577 7.28405 33.5124 7.0079 33.9887C6.73176 34.4651 6.64541 35.028 6.76608 35.5653C6.88675 36.1025 7.20558 36.5744 7.65891 36.8869L33.9089 52.1994C34.2396 52.3969 34.6175 52.5012 35.0027 52.5012C35.3878 52.5012 35.7658 52.3969 36.0964 52.1994L62.3464 36.8869C62.6184 36.7565 62.8605 36.5712 63.0574 36.3427C63.2543 36.1142 63.4019 35.8474 63.4908 35.5591C63.5797 35.2709 63.608 34.9673 63.5739 34.6676C63.5399 34.3679 63.4442 34.0784 63.2929 33.8175C63.1416 33.5565 62.938 33.3296 62.6948 33.1511C62.4516 32.9726 62.1741 32.8463 61.8798 32.7802C61.5855 32.7141 61.2807 32.7096 60.9845 32.7669C60.6884 32.8243 60.4073 32.9423 60.1589 33.1135Z" fill="#C9FA75"/>
<path d="M7.65667 23.7617L33.9067 39.0742C34.2373 39.2717 34.6153 39.376 35.0004 39.376C35.3856 39.376 35.7635 39.2717 36.0942 39.0742L62.3442 23.7617C62.6731 23.5687 62.9459 23.293 63.1354 22.9621C63.325 22.6311 63.4247 22.2564 63.4247 21.875C63.4247 21.4936 63.325 21.1188 63.1354 20.7879C62.9459 20.4569 62.6731 20.1813 62.3442 19.9883L36.0942 4.67577C35.7645 4.47537 35.3862 4.36938 35.0004 4.36938C34.6147 4.36938 34.2363 4.47537 33.9067 4.67577L7.65667 19.9883C7.32773 20.1813 7.05496 20.4569 6.86542 20.7879C6.67589 21.1188 6.57617 21.4936 6.57617 21.875C6.57617 22.2564 6.67589 22.6311 6.86542 22.9621C7.05496 23.293 7.32773 23.5687 7.65667 23.7617V23.7617Z" fill="#C9FA75"/>
</svg>
