<svg width="70" height="70" viewBox="0 0 70 70" fill="none" xmlns="http://www.w3.org/2000/svg">
<path d="M65.406 26.6328C65.1322 25.7714 64.6046 25.0129 63.8922 24.4566C63.1798 23.9004 62.3159 23.5724 61.4138 23.5156L45.1716 22.3945L39.156 7.21875C38.8275 6.38313 38.2558 5.66536 37.5148 5.15835C36.7738 4.65135 35.8976 4.37845 34.9998 4.375V4.375C34.1019 4.37845 33.2258 4.65135 32.4848 5.15835C31.7437 5.66536 31.172 6.38313 30.8435 7.21875L24.7185 22.4766L8.5857 23.5156C7.68474 23.576 6.82263 23.9054 6.11091 24.4612C5.39919 25.0169 4.87059 25.7734 4.59351 26.6328C4.30898 27.5054 4.29235 28.4432 4.54578 29.3254C4.79921 30.2075 5.31108 30.9935 6.01539 31.582L18.4295 42.082L14.738 56.6016C14.4826 57.5838 14.5286 58.6202 14.87 59.5759C15.2113 60.5317 15.8323 61.3627 16.6521 61.9609C17.4479 62.5321 18.396 62.8528 19.3751 62.882C20.3542 62.9113 21.3198 62.6477 22.1482 62.125L34.9724 54.0039H35.0271L48.8357 62.7266C49.544 63.1869 50.3699 63.4337 51.2146 63.4375C51.9044 63.4321 52.5837 63.2686 53.2003 62.9596C53.817 62.6506 54.3546 62.2043 54.7719 61.655C55.1891 61.1057 55.4748 60.4681 55.6071 59.7912C55.7394 59.1142 55.7147 58.4159 55.5349 57.75L51.6248 41.8633L63.9841 31.582C64.6884 30.9935 65.2003 30.2075 65.4537 29.3254C65.7072 28.4432 65.6906 27.5054 65.406 26.6328Z" fill="#CFB8FF"/>
</svg>
