<svg width="70" height="70" viewBox="0 0 70 70" fill="none" xmlns="http://www.w3.org/2000/svg">
<path d="M58.4336 18.1289L47.4961 7.19144C47.0794 6.78517 46.5195 6.55925 45.9375 6.56254H24.0625C22.9022 6.56254 21.7894 7.02347 20.9689 7.84394C20.1484 8.66441 19.6875 9.77721 19.6875 10.9375V15.3125H15.3125C14.1522 15.3125 13.0394 15.7735 12.2189 16.5939C11.3984 17.4144 10.9375 18.5272 10.9375 19.6875V59.0625C10.9375 60.2229 11.3984 61.3357 12.2189 62.1561C13.0394 62.9766 14.1522 63.4375 15.3125 63.4375H45.9375C47.0978 63.4375 48.2106 62.9766 49.0311 62.1561C49.8516 61.3357 50.3125 60.2229 50.3125 59.0625V54.6875H54.6875C55.8478 54.6875 56.9606 54.2266 57.7811 53.4061C58.6016 52.5857 59.0625 51.4729 59.0625 50.3125V19.6875C59.0658 19.1056 58.8399 18.5457 58.4336 18.1289V18.1289ZM37.1875 52.5H24.0625C23.4823 52.5 22.9259 52.2696 22.5157 51.8593C22.1055 51.4491 21.875 50.8927 21.875 50.3125C21.875 49.7324 22.1055 49.176 22.5157 48.7657C22.9259 48.3555 23.4823 48.125 24.0625 48.125H37.1875C37.7677 48.125 38.3241 48.3555 38.7343 48.7657C39.1445 49.176 39.375 49.7324 39.375 50.3125C39.375 50.8927 39.1445 51.4491 38.7343 51.8593C38.3241 52.2696 37.7677 52.5 37.1875 52.5ZM37.1875 43.75H24.0625C23.4823 43.75 22.9259 43.5196 22.5157 43.1093C22.1055 42.6991 21.875 42.1427 21.875 41.5625C21.875 40.9824 22.1055 40.426 22.5157 40.0157C22.9259 39.6055 23.4823 39.375 24.0625 39.375H37.1875C37.7677 39.375 38.3241 39.6055 38.7343 40.0157C39.1445 40.426 39.375 40.9824 39.375 41.5625C39.375 42.1427 39.1445 42.6991 38.7343 43.1093C38.3241 43.5196 37.7677 43.75 37.1875 43.75ZM54.6875 50.3125H50.3125V28.4375C50.3158 27.8556 50.0899 27.2957 49.6836 26.8789L38.7461 15.9414C38.3294 15.5352 37.7695 15.3093 37.1875 15.3125H24.0625V10.9375H45.0352L54.6875 20.5899V50.3125Z" fill="#FFD978"/>
</svg>
