<svg xmlns="http://www.w3.org/2000/svg" xmlns:xlink="http://www.w3.org/1999/xlink" width="1190" zoomAndPan="magnify" viewBox="0 0 892.5 202.499994" height="270" preserveAspectRatio="xMidYMid meet" version="1.0"><defs><g/><clipPath id="id1"><path d="M 427.542969 15.601562 L 494.914062 15.601562 L 494.914062 29 L 427.542969 29 Z M 427.542969 15.601562 " clip-rule="nonzero"/></clipPath><clipPath id="id2"><path d="M 427.542969 34 L 494.914062 34 L 494.914062 48 L 427.542969 48 Z M 427.542969 34 " clip-rule="nonzero"/></clipPath><clipPath id="id3"><path d="M 427.542969 52 L 494.914062 52 L 494.914062 66 L 427.542969 66 Z M 427.542969 52 " clip-rule="nonzero"/></clipPath><clipPath id="id4"><path d="M 427.542969 71 L 494.914062 71 L 494.914062 84.46875 L 427.542969 84.46875 Z M 427.542969 71 " clip-rule="nonzero"/></clipPath></defs><g clip-path="url(#id1)"><path fill="#ffffff" d="M 494.886719 28.628906 C 490.554688 28.628906 487.421875 26.898438 484.65625 25.371094 C 482.308594 24.074219 480.453125 23.046875 478.058594 23.046875 C 475.664062 23.046875 473.808594 24.074219 471.460938 25.371094 C 468.695312 26.898438 465.5625 28.628906 461.230469 28.628906 C 456.894531 28.628906 453.761719 26.898438 450.996094 25.371094 C 448.648438 24.074219 446.796875 23.046875 444.398438 23.046875 C 442.003906 23.046875 440.148438 24.074219 437.804688 25.371094 C 435.039062 26.898438 431.90625 28.628906 427.570312 28.628906 L 427.570312 21.1875 C 429.964844 21.1875 431.820312 20.160156 434.167969 18.863281 C 436.933594 17.335938 440.066406 15.601562 444.398438 15.601562 C 448.734375 15.601562 451.867188 17.335938 454.632812 18.863281 C 456.980469 20.160156 458.832031 21.1875 461.230469 21.1875 C 463.625 21.1875 465.480469 20.160156 467.828125 18.863281 C 470.59375 17.335938 473.722656 15.601562 478.058594 15.601562 C 482.394531 15.601562 485.523438 17.335938 488.289062 18.863281 C 490.636719 20.160156 492.492188 21.1875 494.886719 21.1875 Z M 494.886719 28.628906 " fill-opacity="1" fill-rule="nonzero"/></g><g clip-path="url(#id2)"><path fill="#ffffff" d="M 494.886719 47.242188 C 490.554688 47.242188 487.421875 45.511719 484.65625 43.984375 C 482.308594 42.6875 480.453125 41.660156 478.058594 41.660156 C 475.664062 41.660156 473.808594 42.6875 471.460938 43.984375 C 468.695312 45.511719 465.5625 47.242188 461.230469 47.242188 C 456.894531 47.242188 453.761719 45.511719 450.996094 43.984375 C 448.648438 42.6875 446.796875 41.660156 444.398438 41.660156 C 442.003906 41.660156 440.148438 42.6875 437.804688 43.984375 C 435.039062 45.511719 431.90625 47.242188 427.570312 47.242188 L 427.570312 39.796875 C 429.964844 39.796875 431.820312 38.773438 434.167969 37.476562 C 436.933594 35.949219 440.066406 34.214844 444.398438 34.214844 C 448.734375 34.214844 451.867188 35.949219 454.632812 37.476562 C 456.980469 38.773438 458.832031 39.796875 461.230469 39.796875 C 463.625 39.796875 465.480469 38.773438 467.828125 37.476562 C 470.59375 35.949219 473.722656 34.214844 478.058594 34.214844 C 482.394531 34.214844 485.523438 35.949219 488.289062 37.476562 C 490.636719 38.773438 492.492188 39.796875 494.886719 39.796875 Z M 494.886719 47.242188 " fill-opacity="1" fill-rule="nonzero"/></g><g clip-path="url(#id3)"><path fill="#ffffff" d="M 494.886719 65.855469 C 490.554688 65.855469 487.421875 64.125 484.65625 62.597656 C 482.308594 61.296875 480.453125 60.273438 478.058594 60.273438 C 475.664062 60.273438 473.808594 61.296875 471.460938 62.597656 C 468.695312 64.125 465.5625 65.855469 461.230469 65.855469 C 456.894531 65.855469 453.761719 64.125 450.996094 62.597656 C 448.648438 61.296875 446.796875 60.273438 444.398438 60.273438 C 442.003906 60.273438 440.148438 61.296875 437.804688 62.597656 C 435.039062 64.125 431.90625 65.855469 427.570312 65.855469 L 427.570312 58.410156 C 429.964844 58.410156 431.820312 57.386719 434.167969 56.089844 C 436.933594 54.5625 440.066406 52.828125 444.398438 52.828125 C 448.734375 52.828125 451.867188 54.5625 454.632812 56.089844 C 456.980469 57.386719 458.832031 58.410156 461.230469 58.410156 C 463.625 58.410156 465.480469 57.386719 467.828125 56.089844 C 470.59375 54.5625 473.722656 52.828125 478.058594 52.828125 C 482.394531 52.828125 485.523438 54.5625 488.289062 56.089844 C 490.636719 57.386719 492.492188 58.410156 494.886719 58.410156 Z M 494.886719 65.855469 " fill-opacity="1" fill-rule="nonzero"/></g><g clip-path="url(#id4)"><path fill="#ffffff" d="M 494.886719 84.46875 C 490.554688 84.46875 487.421875 82.738281 484.65625 81.210938 C 482.308594 79.910156 480.453125 78.886719 478.058594 78.886719 C 475.664062 78.886719 473.808594 79.910156 471.460938 81.210938 C 468.695312 82.738281 465.5625 84.46875 461.230469 84.46875 C 456.894531 84.46875 453.761719 82.738281 450.996094 81.210938 C 448.648438 79.910156 446.796875 78.886719 444.398438 78.886719 C 442.003906 78.886719 440.148438 79.910156 437.804688 81.210938 C 435.039062 82.738281 431.90625 84.46875 427.570312 84.46875 L 427.570312 77.023438 C 429.964844 77.023438 431.820312 76 434.167969 74.703125 C 436.933594 73.175781 440.066406 71.441406 444.398438 71.441406 C 448.734375 71.441406 451.867188 73.175781 454.632812 74.703125 C 456.980469 76 458.832031 77.023438 461.230469 77.023438 C 463.625 77.023438 465.480469 76 467.828125 74.703125 C 470.59375 73.175781 473.722656 71.441406 478.058594 71.441406 C 482.394531 71.441406 485.523438 73.175781 488.289062 74.703125 C 490.636719 76 492.492188 77.023438 494.886719 77.023438 Z M 494.886719 84.46875 " fill-opacity="1" fill-rule="nonzero"/></g><g fill="#ffffff" fill-opacity="1"><g transform="translate(351.159682, 160.168239)"><g><path d="M 4.109375 -1.796875 L 4.109375 -6.921875 C 4.109375 -8.804688 4.476562 -10.203125 5.21875 -11.109375 L 27.875 -44.546875 L 27.875 -44.890625 L 7.4375 -44.890625 C 6.238281 -44.890625 5.640625 -45.488281 5.640625 -46.6875 L 5.640625 -53.1875 C 5.640625 -54.375 6.238281 -54.96875 7.4375 -54.96875 L 37.796875 -54.96875 C 38.929688 -54.96875 39.5 -54.375 39.5 -53.1875 L 39.5 -45.828125 C 39.5 -44.117188 39.070312 -42.632812 38.21875 -41.375 L 16.921875 -10.4375 L 16.921875 -10.09375 L 38.640625 -10.09375 C 39.785156 -10.09375 40.359375 -9.550781 40.359375 -8.46875 L 40.359375 -1.96875 C 40.359375 -0.65625 39.785156 0 38.640625 0 L 5.90625 0 C 4.707031 0 4.109375 -0.597656 4.109375 -1.796875 Z M 4.109375 -1.796875 "/></g></g></g><g fill="#ffffff" fill-opacity="1"><g transform="translate(403.145978, 160.168239)"><g><path d="M 35.484375 0 L 7.359375 0 C 6.160156 0 5.5625 -0.597656 5.5625 -1.796875 L 5.5625 -53.1875 C 5.5625 -54.375 6.160156 -54.96875 7.359375 -54.96875 L 14.625 -54.96875 C 15.820312 -54.96875 16.421875 -54.375 16.421875 -53.1875 L 16.421875 -10.4375 C 16.421875 -9.800781 16.757812 -9.484375 17.4375 -9.484375 L 35.484375 -9.484375 C 36.617188 -9.484375 37.1875 -8.859375 37.1875 -7.609375 L 37.1875 -1.796875 C 37.1875 -0.597656 36.617188 0 35.484375 0 Z M 35.484375 0 "/></g></g></g><g fill="#ffffff" fill-opacity="1"><g transform="translate(448.97612, 160.168239)"><g><path d="M 16.84375 -53.1875 L 16.84375 -1.796875 C 16.84375 -0.597656 16.242188 0 15.046875 0 L 7.78125 0 C 6.582031 0 5.984375 -0.597656 5.984375 -1.796875 L 5.984375 -53.1875 C 5.984375 -54.375 6.582031 -54.96875 7.78125 -54.96875 L 15.046875 -54.96875 C 16.242188 -54.96875 16.84375 -54.375 16.84375 -53.1875 Z M 16.84375 -53.1875 "/></g></g></g><g fill="#ffffff" fill-opacity="1"><g transform="translate(479.244823, 160.168239)"><g><path d="M 28.125 0 L 18.8125 0 C 14.3125 0 10.832031 -1.195312 8.375 -3.59375 C 5.925781 -5.988281 4.703125 -9.4375 4.703125 -13.9375 L 4.703125 -41.046875 C 4.703125 -45.546875 5.925781 -48.988281 8.375 -51.375 C 10.832031 -53.769531 14.3125 -54.96875 18.8125 -54.96875 L 28.125 -54.96875 C 32.570312 -54.96875 36.035156 -53.753906 38.515625 -51.328125 C 40.992188 -48.910156 42.234375 -45.484375 42.234375 -41.046875 L 42.234375 -37.015625 C 42.234375 -35.765625 41.609375 -35.140625 40.359375 -35.140625 L 33.171875 -35.140625 C 31.972656 -35.140625 31.375 -35.765625 31.375 -37.015625 L 31.375 -40.53125 C 31.375 -42.351562 30.988281 -43.648438 30.21875 -44.421875 C 29.445312 -45.191406 28.148438 -45.578125 26.328125 -45.578125 L 20.515625 -45.578125 C 18.753906 -45.578125 17.488281 -45.191406 16.71875 -44.421875 C 15.945312 -43.648438 15.5625 -42.351562 15.5625 -40.53125 L 15.5625 -14.453125 C 15.5625 -12.628906 15.945312 -11.332031 16.71875 -10.5625 C 17.488281 -9.789062 18.753906 -9.40625 20.515625 -9.40625 L 26.328125 -9.40625 C 28.148438 -9.40625 29.445312 -9.789062 30.21875 -10.5625 C 30.988281 -11.332031 31.375 -12.628906 31.375 -14.453125 L 31.375 -17.953125 C 31.375 -19.210938 31.972656 -19.84375 33.171875 -19.84375 L 40.359375 -19.84375 C 41.609375 -19.84375 42.234375 -19.210938 42.234375 -17.953125 L 42.234375 -13.9375 C 42.234375 -9.488281 40.992188 -6.050781 38.515625 -3.625 C 36.035156 -1.207031 32.570312 0 28.125 0 Z M 28.125 0 "/></g></g></g><g fill="#ffffff" fill-opacity="1"><g transform="translate(531.315306, 143.807637)"><g><path d="M 12.9375 0 L 3.234375 0 L 3.234375 -37.71875 L 12.9375 -37.71875 L 12.9375 -22.890625 L 17.78125 -22.890625 L 26.1875 -37.71875 L 36.421875 -37.71875 L 25.859375 -19.125 L 36.359375 0 L 26.125 0 L 17.78125 -15.359375 L 12.9375 -15.359375 Z M 12.9375 0 "/></g></g></g><path stroke-linecap="butt" transform="matrix(9.054991, 0, 0, 9.059079, 532.206673, 155.121883)" fill="none" stroke-linejoin="miter" d="M 0.000039613 -0.0000871355 L 4.216033 -0.0000871355 " stroke="#ffffff" stroke-width="1" stroke-opacity="1" stroke-miterlimit="4"/></svg>