<svg width="28" height="28" viewBox="0 0 28 28" fill="none" xmlns="http://www.w3.org/2000/svg">
<path d="M25.1833 17.8284C25.2862 17.9572 25.3507 18.1123 25.3693 18.2761C25.388 18.4398 25.36 18.6055 25.2886 18.7541C25.2172 18.9026 25.1053 19.028 24.9658 19.1157C24.8263 19.2034 24.6648 19.25 24.5 19.25H5.25V23.625C5.25 23.8571 5.15781 24.0796 4.99372 24.2437C4.82962 24.4078 4.60706 24.5 4.375 24.5C4.14294 24.5 3.92038 24.4078 3.75628 24.2437C3.59219 24.0796 3.5 23.8571 3.5 23.625V5.25C3.50001 5.01794 3.5922 4.79539 3.75629 4.63129C3.92039 4.4672 4.14294 4.37501 4.375 4.375H24.5C24.6648 4.37501 24.8263 4.42156 24.9658 4.5093C25.1053 4.59704 25.2172 4.7224 25.2886 4.87094C25.36 5.01949 25.388 5.18518 25.3693 5.34893C25.3507 5.51269 25.2862 5.66785 25.1833 5.79655L20.3705 11.8125L25.1833 17.8284Z" fill="#272727"/>
</svg>
