<svg width="28" height="28" viewBox="0 0 28 28" fill="none" xmlns="http://www.w3.org/2000/svg">
<path d="M22.7039 6.98302C20.4364 5.84921 17.4266 5.25 14 5.25C10.5734 5.25 7.56364 5.84921 5.29614 6.98302C3.04253 8.10988 1.75 9.71066 1.75 11.375V16.625C1.75 18.2893 3.04253 19.8901 5.29614 21.017C7.56364 22.1508 10.5734 22.75 14 22.75C17.4266 22.75 20.4364 22.1508 22.7039 21.017C24.9575 19.8901 26.25 18.2893 26.25 16.625V11.375C26.25 9.71066 24.9575 8.10988 22.7039 6.98302ZM13.125 17.485V20.9841C11.0485 20.9161 9.29399 20.6092 7.875 20.1645V16.7393C9.58909 17.196 11.3516 17.4463 13.125 17.485ZM14.875 17.485C16.6484 17.4463 18.4109 17.196 20.125 16.7393V20.1645C18.706 20.6092 16.9515 20.9161 14.875 20.9841V17.485ZM3.5 16.625V14.6049C4.05058 15.062 4.65352 15.4521 5.29614 15.767C5.5621 15.9 5.83917 16.0249 6.125 16.1431V19.4717C4.39396 18.6117 3.5 17.5322 3.5 16.625ZM21.875 19.4717V16.1431C22.1608 16.0249 22.4379 15.9 22.7039 15.767C23.3465 15.4521 23.9494 15.062 24.5 14.6049V16.625C24.5 17.5322 23.606 18.6117 21.875 19.4717Z" fill="black"/>
</svg>
