<svg width="28" height="28" viewBox="0 0 28 28" fill="none" xmlns="http://www.w3.org/2000/svg">
<path d="M14 19.249C18.8325 19.249 22.75 15.3315 22.75 10.499C22.75 5.66653 18.8325 1.74902 14 1.74902C9.16751 1.74902 5.25 5.66653 5.25 10.499C5.25 15.3315 9.16751 19.249 14 19.249Z" fill="black"/>
<path d="M22.662 19.1613C22.8261 18.9972 22.9183 18.7746 22.9183 18.5425C22.9183 18.3105 22.8261 18.0879 22.662 17.9238C22.4979 17.7597 22.2754 17.6675 22.0433 17.6675C21.8112 17.6675 21.5886 17.7597 21.4245 17.9238C20.4496 18.8993 19.2921 19.6732 18.018 20.2013C16.744 20.7293 15.3784 21.0013 13.9993 21.0015C12.6201 21.0017 11.2544 20.7302 9.98021 20.2025C8.706 19.6749 7.54823 18.9013 6.57302 17.9261C5.59781 16.9509 4.82428 15.7931 4.2966 14.5189C3.76893 13.2447 3.49744 11.879 3.49766 10.4999C3.49788 9.12074 3.76979 7.75514 4.29787 6.4811C4.82595 5.20705 5.59985 4.04953 6.57536 3.07463C6.73947 2.91052 6.83166 2.68795 6.83166 2.45587C6.83166 2.22379 6.73947 2.00121 6.57536 1.83711C6.41125 1.673 6.18868 1.58081 5.9566 1.58081C5.72452 1.58081 5.50195 1.673 5.33784 1.83711C3.67739 3.49764 2.52919 5.60043 2.02999 7.89506C1.5308 10.1897 1.70164 12.5794 2.52218 14.7797C3.34272 16.98 4.77837 18.898 6.65816 20.3055C8.53794 21.7129 10.7826 22.5504 13.1249 22.7182V24.4992H10.4999C10.2679 24.4992 10.0453 24.5914 9.88122 24.7555C9.71712 24.9196 9.62494 25.1421 9.62494 25.3742C9.62494 25.6063 9.71712 25.8288 9.88122 25.9929C10.0453 26.157 10.2679 26.2492 10.4999 26.2492H17.4999C17.732 26.2492 17.9546 26.157 18.1187 25.9929C18.2827 25.8288 18.3749 25.6063 18.3749 25.3742C18.3749 25.1421 18.2827 24.9196 18.1187 24.7555C17.9546 24.5914 17.732 24.4992 17.4999 24.4992H14.8749V22.7182C17.816 22.5158 20.5834 21.2518 22.662 19.1613Z" fill="black"/>
</svg>
