<svg width="28" height="28" viewBox="0 0 28 28" fill="none" xmlns="http://www.w3.org/2000/svg">
<path d="M20.5966 4.73562C20.5508 4.69603 20.501 4.6613 20.448 4.63199C17.9738 2.93602 14.9284 2.28947 11.9786 2.83388C9.02875 3.37828 6.41478 5.06929 4.70894 7.53669C3.00311 10.0041 2.3444 13.0469 2.87701 15.9989C3.40963 18.9509 5.09018 21.5716 7.55076 23.2872C10.0113 25.0029 13.0514 25.6738 16.0055 25.153C18.9596 24.6321 21.587 22.9621 23.3125 20.5084C25.038 18.0547 25.721 15.0173 25.212 12.0611C24.703 9.10495 23.0434 6.4709 20.5966 4.73562ZM14.0015 16.6235C13.4823 16.6235 12.9748 16.4695 12.5431 16.1811C12.1114 15.8926 11.775 15.4827 11.5763 15.003C11.3776 14.5233 11.3256 13.9955 11.4269 13.4863C11.5282 12.9771 11.7782 12.5094 12.1453 12.1423C12.5124 11.7752 12.9802 11.5252 13.4894 11.4239C13.9986 11.3226 14.5264 11.3746 15.006 11.5733C15.4857 11.7719 15.8956 12.1084 16.1841 12.5401C16.4725 12.9718 16.6265 13.4793 16.6265 13.9985C16.6257 14.6944 16.3488 15.3616 15.8567 15.8537C15.3646 16.3458 14.6974 16.6227 14.0015 16.6235ZM23.6265 13.9985C23.6265 14.2688 23.6147 14.5364 23.5927 14.8012L18.3735 13.8809C18.3453 12.8027 17.9183 11.7732 17.175 10.9917L20.2132 6.65264C21.2827 7.55467 22.1423 8.67941 22.7318 9.94824C23.3214 11.2171 23.6267 12.5993 23.6265 13.9985Z" fill="#272727"/>
</svg>
