<svg width="28" height="28" viewBox="0 0 28 28" fill="none" xmlns="http://www.w3.org/2000/svg">
<path d="M15.75 23.625H12.25C12.0179 23.625 11.7954 23.7172 11.6313 23.8813C11.4672 24.0454 11.375 24.2679 11.375 24.5C11.375 24.7321 11.4672 24.9546 11.6313 25.1187C11.7954 25.2828 12.0179 25.375 12.25 25.375H15.75C15.9821 25.375 16.2046 25.2828 16.3687 25.1187C16.5328 24.9546 16.625 24.7321 16.625 24.5C16.625 24.2679 16.5328 24.0454 16.3687 23.8813C16.2046 23.7172 15.9821 23.625 15.75 23.625Z" fill="#272727"/>
<path d="M24.0218 15.7348L20.7147 11.7662C20.609 10.459 20.315 9.17396 19.8419 7.95082C18.5712 4.6464 16.3248 2.48218 15.0988 1.48616C14.7879 1.23592 14.4011 1.09887 14.0021 1.09754C13.603 1.09621 13.2153 1.23068 12.9028 1.47885C11.6607 2.47385 9.38545 4.63646 8.102 7.94137C7.61305 9.19218 7.31452 10.5093 7.21637 11.8486L3.97801 15.7348C3.80742 15.9407 3.68599 16.1828 3.62291 16.4427C3.55984 16.7026 3.55679 16.9735 3.614 17.2347L4.96623 23.3196C5.03031 23.6099 5.16738 23.8791 5.36447 24.1017C5.56156 24.3243 5.81217 24.493 6.0926 24.5918C6.37304 24.6906 6.67404 24.7162 6.96714 24.6663C7.26025 24.6164 7.53578 24.4925 7.76768 24.3065L10.8068 21.8752H17.1931L20.2321 24.3064C20.5409 24.5551 20.9254 24.6908 21.322 24.6911C21.5212 24.6909 21.7189 24.6569 21.9068 24.5906C22.1875 24.4927 22.4386 24.3245 22.6358 24.102C22.8331 23.8795 22.9701 23.6101 23.0336 23.3196L24.3858 17.2348C24.4431 16.9736 24.44 16.7027 24.3769 16.4428C24.3139 16.1829 24.1924 15.9408 24.0218 15.7348ZM6.67457 22.94L5.32234 16.8551L7.28305 14.5022C7.53163 16.5465 8.22945 18.6386 9.37653 20.7784L6.67457 22.94ZM13.9999 11.8127C13.7403 11.8127 13.4866 11.7357 13.2707 11.5915C13.0549 11.4473 12.8867 11.2423 12.7873 11.0025C12.688 10.7626 12.662 10.4987 12.7126 10.2441C12.7633 9.98954 12.8883 9.75568 13.0718 9.57212C13.2554 9.38857 13.4893 9.26356 13.7439 9.21292C13.9985 9.16228 14.2624 9.18827 14.5022 9.28761C14.742 9.38695 14.947 9.55518 15.0912 9.77102C15.2354 9.98686 15.3124 10.2406 15.3124 10.5002C15.3124 10.8483 15.1741 11.1821 14.928 11.4283C14.6819 11.6744 14.348 11.8127 13.9999 11.8127ZM21.3253 22.94L18.6183 20.7743C19.7507 18.6195 20.4341 16.5094 20.6683 14.4441L22.6775 16.8551L21.3253 22.94Z" fill="#272727"/>
</svg>
