<svg width="28" height="28" viewBox="0 0 28 28" fill="none" xmlns="http://www.w3.org/2000/svg">
<path d="M23.3612 8.99882L17.2436 2.88124C17.2349 2.87248 17.2254 2.86479 17.2163 2.85646C17.2045 2.84562 17.193 2.8344 17.1806 2.8242C17.1724 2.81747 17.1636 2.8116 17.1551 2.80514C17.1408 2.79419 17.1267 2.78308 17.1117 2.77299C17.1049 2.76845 17.0977 2.76466 17.0909 2.76033C17.0735 2.74938 17.0562 2.73849 17.038 2.72871C17.0331 2.7261 17.028 2.72407 17.0231 2.72156C17.0026 2.71098 16.9818 2.70084 16.9604 2.69192C16.9571 2.69053 16.9536 2.68951 16.9502 2.68818C16.9272 2.67894 16.9039 2.67029 16.8799 2.66302C16.8765 2.66195 16.8729 2.66131 16.8694 2.6603C16.8457 2.65341 16.8217 2.64705 16.7972 2.64214C16.7894 2.64059 16.7813 2.6399 16.7734 2.63856C16.7532 2.63504 16.733 2.63146 16.7123 2.62943C16.6833 2.62648 16.6541 2.625 16.6249 2.625H6.12402C5.66006 2.62553 5.21525 2.81008 4.88717 3.13815C4.5591 3.46622 4.37455 3.91103 4.37402 4.375V23.625C4.37455 24.089 4.5591 24.5338 4.88717 24.8619C5.21525 25.1899 5.66006 25.3745 6.12402 25.375H21.8749C22.3388 25.3745 22.7837 25.1899 23.1117 24.8619C23.4398 24.5338 23.6243 24.089 23.6249 23.625V9.64193C23.625 9.63622 23.6257 9.63071 23.6257 9.625C23.6258 9.50823 23.6025 9.39263 23.557 9.28507C23.5116 9.1775 23.445 9.08016 23.3612 8.99882ZM17.6811 17.6813L14.6186 20.7438C14.6161 20.7463 14.6132 20.7484 14.6107 20.7509C14.5927 20.7685 14.5742 20.7855 14.5547 20.8015C14.544 20.8103 14.5327 20.818 14.5217 20.8262C14.5098 20.8351 14.4982 20.8443 14.4858 20.8526C14.4731 20.8611 14.4599 20.8685 14.4468 20.8762C14.4353 20.8831 14.4242 20.8903 14.4124 20.8966C14.3992 20.9036 14.3857 20.9096 14.3723 20.9159C14.3598 20.9218 14.3475 20.928 14.3347 20.9333C14.3218 20.9387 14.3086 20.943 14.2954 20.9477C14.2816 20.9527 14.268 20.958 14.2539 20.9623C14.2408 20.9662 14.2275 20.9691 14.2142 20.9724C14.1998 20.9761 14.1855 20.9801 14.1708 20.983C14.1556 20.9861 14.1402 20.9879 14.1248 20.9901C14.1119 20.9919 14.0993 20.9944 14.0862 20.9956C14.0575 20.9985 14.0287 21 13.9999 21C13.971 21 13.9423 20.9985 13.9135 20.9956C13.9005 20.9944 13.8878 20.9919 13.8749 20.9901C13.8596 20.9879 13.8442 20.9861 13.8289 20.983C13.8142 20.9801 13.7999 20.9761 13.7855 20.9724C13.7723 20.9691 13.759 20.9662 13.7459 20.9623C13.7318 20.958 13.7181 20.9527 13.7043 20.9477C13.6912 20.943 13.6779 20.9387 13.665 20.9333C13.6523 20.928 13.64 20.9218 13.6275 20.9159C13.6141 20.9096 13.6005 20.9036 13.5874 20.8966C13.5756 20.8903 13.5644 20.8831 13.553 20.8762C13.5399 20.8685 13.5266 20.8611 13.5139 20.8525C13.5016 20.8443 13.49 20.8351 13.4781 20.8262C13.4671 20.818 13.4558 20.8103 13.4451 20.8015C13.426 20.7858 13.4078 20.769 13.39 20.7518C13.3872 20.749 13.384 20.7466 13.3812 20.7438L10.3187 17.6813C10.1546 17.5172 10.0624 17.2946 10.0624 17.0625C10.0624 16.8305 10.1546 16.6079 10.3186 16.4438C10.4827 16.2797 10.7053 16.1875 10.9374 16.1875C11.1694 16.1875 11.392 16.2797 11.5561 16.4438L13.1249 18.0126V13.125C13.1249 12.8929 13.2171 12.6704 13.3812 12.5063C13.5453 12.3422 13.7678 12.25 13.9999 12.25C14.2319 12.25 14.4545 12.3422 14.6186 12.5063C14.7827 12.6704 14.8749 12.8929 14.8749 13.125V18.0126L16.4437 16.4438C16.5249 16.3625 16.6214 16.2981 16.7275 16.2541C16.8337 16.2102 16.9475 16.1875 17.0624 16.1875C17.1773 16.1875 17.2911 16.2102 17.3972 16.2541C17.5034 16.2981 17.5999 16.3626 17.6811 16.4438C17.7624 16.5251 17.8268 16.6215 17.8708 16.7277C17.9148 16.8339 17.9374 16.9476 17.9374 17.0625C17.9374 17.1775 17.9147 17.2912 17.8708 17.3974C17.8268 17.5036 17.7623 17.6 17.6811 17.6813V17.6813ZM16.6249 9.625V4.73741L21.5124 9.625H16.6249Z" fill="#272727"/>
</svg>
