<svg width="28" height="28" viewBox="0 0 28 28" fill="none" xmlns="http://www.w3.org/2000/svg">
<path d="M6.99986 15.3127C6.99987 15.4276 6.97724 15.5414 6.93327 15.6476C6.8893 15.7537 6.82485 15.8502 6.7436 15.9314C6.66234 16.0127 6.56588 16.0771 6.45972 16.1211C6.35356 16.1651 6.23977 16.1877 6.12486 16.1877H6.12481L1.31215 16.1873C1.14961 16.1873 0.990281 16.142 0.852037 16.0565C0.713793 15.971 0.602095 15.8487 0.529465 15.7033C0.456836 15.5578 0.426146 15.3951 0.440838 15.2332C0.455529 15.0713 0.51502 14.9167 0.612641 14.7868C1.38815 13.7477 2.42247 12.9301 3.6125 12.4154C3.10115 11.948 2.70815 11.3658 2.46583 10.7168C2.22352 10.0678 2.13883 9.37049 2.21874 8.68233C2.29865 7.99417 2.54088 7.33483 2.92547 6.75861C3.31006 6.18238 3.82602 5.70574 4.43086 5.36794C5.03571 5.03013 5.71214 4.84083 6.40447 4.81561C7.09679 4.79038 7.7852 4.92997 8.41303 5.22286C9.04085 5.51576 9.59013 5.95359 10.0156 6.5003C10.4411 7.04702 10.7307 7.68698 10.8605 8.3675C10.894 8.54426 10.8723 8.72706 10.7982 8.89102C10.7241 9.05497 10.6013 9.1921 10.4465 9.28373C9.02987 10.1218 7.95171 11.4297 7.39939 12.9802C7.13406 13.7292 6.99893 14.5181 6.99986 15.3127ZM27.3873 14.7866C26.6118 13.7475 25.5775 12.9299 24.3875 12.4152C24.8988 11.9478 25.2918 11.3656 25.5341 10.7166C25.7765 10.0676 25.8611 9.3703 25.7812 8.68215C25.7013 7.99399 25.4591 7.33466 25.0745 6.75843C24.6899 6.1822 24.174 5.70556 23.5692 5.36776C22.9643 5.02995 22.2879 4.84064 21.5956 4.8154C20.9033 4.79017 20.2148 4.92974 19.587 5.22262C18.9592 5.5155 18.4099 5.95331 17.9844 6.50002C17.5589 7.04672 17.2693 7.68667 17.1395 8.36718C17.106 8.54393 17.1277 8.72672 17.2018 8.89067C17.2759 9.05462 17.3987 9.19176 17.5535 9.28341C18.9701 10.1215 20.0482 11.4294 20.6006 12.9799C20.8659 13.729 21.001 14.5179 21.0001 15.3125C21.0001 15.4274 21.0227 15.5412 21.0667 15.6474C21.1107 15.7535 21.1751 15.85 21.2564 15.9312C21.3377 16.0125 21.4341 16.0769 21.5403 16.1209C21.6465 16.1649 21.7603 16.1875 21.8752 16.1875L26.6878 16.1871C26.8503 16.187 27.0097 16.1417 27.1479 16.0563C27.2862 15.9708 27.3978 15.8485 27.4705 15.703C27.5431 15.5576 27.5738 15.3949 27.5591 15.233C27.5444 15.0711 27.4849 14.9165 27.3873 14.7866L27.3873 14.7866ZM17.1896 19.4785C18.0615 18.8117 18.7024 17.8883 19.0222 16.8383C19.3421 15.7883 19.3248 14.6645 18.9728 13.6248C18.6207 12.5851 17.9517 11.6819 17.0597 11.0422C16.1678 10.4025 15.0977 10.0585 14.0001 10.0585C12.9024 10.0585 11.8324 10.4025 10.9404 11.0422C10.0484 11.6819 9.37941 12.5851 9.02739 13.6248C8.67537 14.6645 8.65806 15.7883 8.97791 16.8383C9.29776 17.8883 9.93867 18.8117 10.8105 19.4785C9.10701 20.2306 7.72688 21.5646 6.9173 23.2415C6.85227 23.3749 6.82225 23.5227 6.83004 23.6709C6.83784 23.8191 6.8832 23.9628 6.96186 24.0887C7.04052 24.2145 7.14989 24.3183 7.27969 24.3902C7.40949 24.4622 7.55546 24.4999 7.70386 24.4999H20.2963C20.4447 24.4999 20.5906 24.4621 20.7204 24.3902C20.8502 24.3183 20.9596 24.2145 21.0383 24.0887C21.1169 23.9628 21.1623 23.8191 21.1701 23.6709C21.1779 23.5227 21.1479 23.3749 21.0829 23.2415C20.2733 21.5646 18.8931 20.2306 17.1896 19.4785Z" fill="#272727"/>
</svg>
