<svg width="152" height="32" viewBox="0 0 152 32" fill="none" xmlns="http://www.w3.org/2000/svg">
<path fill-rule="evenodd" clip-rule="evenodd" d="M18.7234 0.253425C17.9041 -0.191656 16.8791 0.111719 16.434 0.931034L0.949724 29.4348C0.504642 30.2541 0.80802 31.2791 1.62733 31.7242C2.44665 32.1692 3.47164 31.8659 3.91673 31.0466L19.401 2.54282C19.8461 1.7235 19.5427 0.698507 18.7234 0.253425Z" fill="#FF3F3F"/>
<path fill-rule="evenodd" clip-rule="evenodd" d="M15.7407 17.6107C14.9161 17.1756 13.8949 17.4914 13.4597 18.316L7.57153 29.4752C7.1364 30.2998 7.45217 31.3211 8.27681 31.7562C9.10146 32.1913 10.1227 31.8756 10.5578 31.0509L16.446 19.8918C16.8812 19.0671 16.5654 18.0459 15.7407 17.6107Z" fill="#FF3F3F"/>
<path fill-rule="evenodd" clip-rule="evenodd" d="M11.4844 0.253425C12.3037 -0.191656 13.3287 0.111719 13.7738 0.931034L29.258 29.4348C29.7031 30.2541 29.3997 31.2791 28.5804 31.7242C27.7611 32.1692 26.7361 31.8659 26.291 31.0466L10.8068 2.54282C10.3617 1.7235 10.6651 0.698507 11.4844 0.253425Z" fill="#FF3F3F"/>
<path fill-rule="evenodd" clip-rule="evenodd" d="M14.1656 17.6558C14.9817 17.2048 16.0088 17.5007 16.4598 18.3168L22.6103 29.4466C23.0613 30.2627 22.7653 31.2899 21.9493 31.7408C21.1332 32.1918 20.106 31.8958 19.655 31.0798L13.5045 19.95C13.0535 19.1339 13.3495 18.1067 14.1656 17.6558Z" fill="#FF3F3F"/>
<path d="M41.6725 26.3455V6.44172H48.98C50.5723 6.44172 51.8803 6.71659 52.9039 7.26631C53.9465 7.79708 54.7237 8.52688 55.2355 9.45572C55.7473 10.3656 56.0032 11.3797 56.0032 12.4981C56.0032 13.7113 55.6809 14.8203 55.0364 15.8249C54.4109 16.8296 53.4252 17.5594 52.0793 18.0143L56.2022 26.3455H52.0224L48.326 18.4977H45.312V26.3455H41.6725ZM45.312 15.8249H48.7525C49.9657 15.8249 50.8566 15.5311 51.4253 14.9435C51.994 14.3558 52.2783 13.5786 52.2783 12.6119C52.2783 11.6641 51.994 10.9058 51.4253 10.3372C50.8756 9.76849 49.9752 9.48415 48.7241 9.48415H45.312V15.8249Z" fill="#191919"/>
<path d="M65.2946 26.6867C63.8729 26.6867 62.6124 26.3834 61.5129 25.7768C60.4135 25.1702 59.551 24.3172 58.9254 23.2177C58.2999 22.1183 57.9871 20.8482 57.9871 19.4076C57.9871 17.948 58.2904 16.6495 58.897 15.5121C59.5225 14.3748 60.3756 13.4933 61.456 12.8678C62.5555 12.2233 63.8445 11.901 65.3231 11.901C66.7068 11.901 67.9295 12.2043 68.991 12.8109C70.0526 13.4175 70.8772 14.2516 71.4648 15.3131C72.0714 16.3557 72.3747 17.5215 72.3747 18.8105C72.3747 19.019 72.3652 19.237 72.3462 19.4645C72.3462 19.6919 72.3368 19.9289 72.3178 20.1753H61.5982C61.674 21.2748 62.0532 22.1372 62.7356 22.7628C63.4369 23.3883 64.2805 23.7011 65.2662 23.7011C66.0055 23.7011 66.6215 23.54 67.1144 23.2177C67.6262 22.8765 68.0053 22.4405 68.2518 21.9098H71.9482C71.6828 22.8007 71.2373 23.6158 70.6118 24.3551C70.0052 25.0754 69.2469 25.6441 68.3371 26.0611C67.4461 26.4782 66.432 26.6867 65.2946 26.6867ZM65.3231 14.8582C64.4321 14.8582 63.6455 15.1141 62.963 15.6259C62.2806 16.1187 61.8446 16.877 61.6551 17.9006H68.6783C68.6214 16.9718 68.2802 16.2325 67.6546 15.6827C67.0291 15.133 66.2519 14.8582 65.3231 14.8582Z" fill="#191919"/>
<path d="M75.4358 26.3455V12.2422H78.6488L78.9331 14.6307C79.3691 13.7966 79.9947 13.1332 80.8098 12.6403C81.6438 12.1475 82.6201 11.901 83.7385 11.901C85.4824 11.901 86.8378 12.4508 87.8045 13.5502C88.7713 14.6496 89.2546 16.2609 89.2546 18.384V26.3455H85.6151V18.7252C85.6151 17.512 85.3687 16.5832 84.8758 15.9387C84.383 15.2942 83.6153 14.9719 82.5727 14.9719C81.5491 14.9719 80.7055 15.3321 80.0421 16.0524C79.3976 16.7727 79.0753 17.7774 79.0753 19.0664V26.3455H75.4358Z" fill="#191919"/>
<path d="M99.0188 26.3455C97.5402 26.3455 96.3555 25.9853 95.4646 25.265C94.5736 24.5447 94.1282 23.2651 94.1282 21.4264V15.2847H91.7113V12.2422H94.1282L94.5547 8.46053H97.7677V12.2422H101.578V15.2847H97.7677V21.4548C97.7677 22.1372 97.9099 22.6111 98.1942 22.8765C98.4975 23.123 99.0093 23.2462 99.7297 23.2462H101.493V26.3455H99.0188Z" fill="#191919"/>
<path d="M109.565 26.6867C108.352 26.6867 107.357 26.4971 106.579 26.118C105.802 25.7199 105.224 25.1986 104.845 24.5541C104.466 23.9096 104.276 23.1988 104.276 22.4216C104.276 21.1136 104.788 20.0521 105.812 19.237C106.835 18.4219 108.371 18.0143 110.418 18.0143H114.001V17.6731C114.001 16.7064 113.726 15.9955 113.176 15.5406C112.626 15.0856 111.944 14.8582 111.129 14.8582C110.389 14.8582 109.745 15.0382 109.195 15.3984C108.646 15.7396 108.304 16.2514 108.172 16.9338H104.617C104.712 15.9102 105.053 15.0193 105.641 14.2611C106.248 13.5028 107.025 12.9247 107.973 12.5266C108.92 12.1096 109.982 11.901 111.157 11.901C113.167 11.901 114.749 12.4034 115.906 13.408C117.062 14.4127 117.64 15.8344 117.64 17.6731V26.3455H114.541L114.2 24.0708C113.783 24.829 113.195 25.4545 112.437 25.9474C111.697 26.4402 110.74 26.6867 109.565 26.6867ZM110.389 23.8433C111.432 23.8433 112.238 23.5021 112.806 22.8197C113.394 22.1372 113.764 21.2937 113.915 20.289H110.816C109.849 20.289 109.157 20.4691 108.74 20.8293C108.323 21.1705 108.115 21.597 108.115 22.1088C108.115 22.6585 108.323 23.085 108.74 23.3883C109.157 23.6916 109.707 23.8433 110.389 23.8433Z" fill="#191919"/>
<path d="M121.113 26.3455V5.87305H124.753V26.3455H121.113Z" fill="#191919"/>
<path d="M134.365 26.3455L140.593 16.2799L134.28 6.44172H138.46L142.924 13.3796L147.019 6.44172H151.113L144.886 16.4505L151.255 26.3455H147.075L142.554 19.3223L138.46 26.3455H134.365Z" fill="#191919"/>
</svg>
