<svg width="16" height="16" viewBox="0 0 16 16" fill="none" xmlns="http://www.w3.org/2000/svg">
<path d="M2.16663 14.6667V13.8333C2.16663 13.0673 2.31751 12.3087 2.61066 11.601C2.90381 10.8933 3.33349 10.2502 3.87517 9.70854C4.41684 9.16687 5.05991 8.73719 5.76764 8.44404C6.47537 8.15088 7.23391 8 7.99996 8C8.766 8 9.52455 8.15088 10.2323 8.44404C10.94 8.73719 11.5831 9.16687 12.1247 9.70854C12.6664 10.2502 13.0961 10.8933 13.3893 11.601C13.6824 12.3087 13.8333 13.0673 13.8333 13.8333V14.6667" stroke="#191919" stroke-width="1.6" stroke-linecap="round" stroke-linejoin="round"/>
<path d="M7.9999 8.00004C8.88395 8.00004 9.7318 7.64885 10.3569 7.02373C10.982 6.39861 11.3332 5.55076 11.3332 4.66671C11.3332 3.78265 10.982 2.93481 10.3569 2.30968C9.7318 1.68456 8.88395 1.33337 7.9999 1.33337C7.11584 1.33337 6.268 1.68456 5.64288 2.30968C5.01775 2.93481 4.66656 3.78265 4.66656 4.66671C4.66656 5.55076 5.01775 6.39861 5.64288 7.02373C6.268 7.64885 7.11584 8.00004 7.9999 8.00004V8.00004Z" stroke="#191919" stroke-width="1.6" stroke-linecap="round" stroke-linejoin="round"/>
</svg>
