<svg width="16" height="16" viewBox="0 0 16 16" fill="none" xmlns="http://www.w3.org/2000/svg">
<g clip-path="url(#clip0_1610_32377)">
<path d="M1.83303 7.5H14.1664C14.52 7.5 14.8591 7.64048 15.1092 7.89052C15.3592 8.14057 15.4997 8.47971 15.4997 8.83333V12H0.499695V8.83333C0.499695 8.47971 0.640171 8.14057 0.890219 7.89052C1.14027 7.64048 1.47941 7.5 1.83303 7.5V7.5Z" stroke="#191919" stroke-width="1.35954" stroke-linecap="round" stroke-linejoin="round"/>
<path d="M0.499695 12V14" stroke="#191919" stroke-width="1.35954" stroke-linecap="round" stroke-linejoin="round"/>
<path d="M15.4996 12V14" stroke="#191919" stroke-width="1.35954" stroke-linecap="round" stroke-linejoin="round"/>
<path d="M13.9998 7.5V3C13.9998 2.73478 13.8944 2.48043 13.7069 2.29289C13.5193 2.10536 13.265 2 12.9998 2H2.99976C2.73454 2 2.48019 2.10536 2.29265 2.29289C2.10511 2.48043 1.99976 2.73478 1.99976 3V7.5" stroke="#191919" stroke-width="1.35954" stroke-linecap="round" stroke-linejoin="round"/>
<path d="M5.6663 5H10.333C10.5098 5 10.6793 5.07024 10.8044 5.19526C10.9294 5.32029 10.9996 5.48986 10.9996 5.66667V7.5H4.99963V5.66667C4.99963 5.48986 5.06987 5.32029 5.1949 5.19526C5.31992 5.07024 5.48949 5 5.6663 5V5Z" stroke="#191919" stroke-width="1.35954" stroke-linecap="round" stroke-linejoin="round"/>
</g>
<defs>
<clipPath id="clip0_1610_32377">
<rect width="16" height="16" fill="white"/>
</clipPath>
</defs>
</svg>
