<svg width="16" height="16" viewBox="0 0 16 16" fill="none" xmlns="http://www.w3.org/2000/svg">
<g clip-path="url(#clip0_1632_35021)">
<path d="M8.5 9.50049H15.5L15.0573 12.1578C14.9017 13.0919 14.4197 13.9405 13.6972 14.5526C12.9746 15.1647 12.0583 15.5006 11.1113 15.5005H4.88867C3.94169 15.5006 3.0254 15.1647 2.30283 14.5526C1.58026 13.9405 1.09829 13.0919 0.942667 12.1578L0.5 9.50049H3.5" stroke="#191919" stroke-width="1.34699" stroke-linecap="round" stroke-linejoin="round"/>
<path d="M8 13.5002H4C3.86739 13.5002 3.74021 13.4476 3.64645 13.3538C3.55268 13.26 3.5 13.1329 3.5 13.0002V9.50024C3.5 9.23503 3.60536 8.98067 3.79289 8.79314C3.98043 8.6056 4.23478 8.50024 4.5 8.50024H7.5C7.76522 8.50024 8.01957 8.6056 8.20711 8.79314C8.39464 8.98067 8.5 9.23503 8.5 9.50024V13.0002C8.5 13.1329 8.44732 13.26 8.35355 13.3538C8.25979 13.4476 8.13261 13.5002 8 13.5002Z" stroke="#191919" stroke-width="1.34699" stroke-linecap="round" stroke-linejoin="round"/>
<path d="M10.5 2.50024C10.5 1.96981 10.7107 1.4611 11.0858 1.08603C11.4609 0.710958 11.9696 0.500244 12.5 0.500244C13.0304 0.500244 13.5391 0.710958 13.9142 1.08603C14.2893 1.4611 14.5 1.96981 14.5 2.50024V9.50024" stroke="#191919" stroke-width="1.34699" stroke-linecap="round" stroke-linejoin="round"/>
<path d="M8.5 4.50024C8.5 3.96981 8.71071 3.4611 9.08579 3.08603C9.46086 2.71096 9.96957 2.50024 10.5 2.50024C11.0304 2.50024 11.5391 2.71096 11.9142 3.08603C12.2893 3.4611 12.5 3.96981 12.5 4.50024H8.5Z" stroke="#191919" stroke-width="1.34699" stroke-linecap="round" stroke-linejoin="round"/>
</g>
<defs>
<clipPath id="clip0_1632_35021">
<rect width="16" height="16" fill="white"/>
</clipPath>
</defs>
</svg>
